<?xml version="1.0" encoding="utf-8" standalone="no"?>
<!DOCTYPE svg PUBLIC "-//W3C//DTD SVG 1.1//EN"
  "http://www.w3.org/Graphics/SVG/1.1/DTD/svg11.dtd">
<svg xmlns:xlink="http://www.w3.org/1999/xlink" width="792.429609pt" height="311.4pt" viewBox="0 0 792.429609 311.4" xmlns="http://www.w3.org/2000/svg" version="1.1">
 <metadata>
  <rdf:RDF xmlns:dc="http://purl.org/dc/elements/1.1/" xmlns:cc="http://creativecommons.org/ns#" xmlns:rdf="http://www.w3.org/1999/02/22-rdf-syntax-ns#">
   <cc:Work>
    <dc:type rdf:resource="http://purl.org/dc/dcmitype/StillImage"/>
    <dc:date>2026-06-18T19:23:23.316398</dc:date>
    <dc:format>image/svg+xml</dc:format>
    <dc:creator>
     <cc:Agent>
      <dc:title>Matplotlib v3.5.2, https://matplotlib.org/</dc:title>
     </cc:Agent>
    </dc:creator>
   </cc:Work>
  </rdf:RDF>
 </metadata>
 <defs>
  <style type="text/css">*{stroke-linejoin: round; stroke-linecap: butt}</style>
 </defs>
 <g id="figure_1">
  <g id="patch_1">
   <path d="M 0 311.4 
L 792.429609 311.4 
L 792.429609 0 
L 0 0 
z
" style="fill: #ffffff"/>
  </g>
  <g id="axes_1">
   <g id="patch_2">
    <path d="M 45.930305 250.765488 
L 238.021805 250.765488 
Q 251.581205 250.765488 251.581205 245.87568 
L 251.581205 88.3152 
Q 251.581205 83.425392 238.021805 83.425392 
L 45.930305 83.425392 
Q 32.370905 83.425392 32.370905 88.3152 
L 32.370905 245.87568 
Q 32.370905 250.765488 45.930305 250.765488 
z
" clip-path="url(#p46642fdee0)" style="fill: #f3f3f3; stroke: #686868; stroke-width: 1.6; stroke-linejoin: miter"/>
   </g>
   <g id="patch_3">
    <path d="M 294.519305 261.631728 
L 509.209805 261.631728 
Q 522.769205 261.631728 522.769205 256.74192 
L 522.769205 77.44896 
Q 522.769205 72.559152 509.209805 72.559152 
L 294.519305 72.559152 
Q 280.959905 72.559152 280.959905 77.44896 
L 280.959905 256.74192 
Q 280.959905 261.631728 294.519305 261.631728 
z
" clip-path="url(#p46642fdee0)" style="fill: #e8f6f5; stroke: #087982; stroke-width: 1.6; stroke-linejoin: miter"/>
   </g>
   <g id="patch_4">
    <path d="M 313.351805 178.504992 
L 490.377305 178.504992 
Q 499.416905 178.504992 499.416905 175.24512 
L 499.416905 142.6464 
Q 499.416905 139.386528 490.377305 139.386528 
L 313.351805 139.386528 
Q 304.312205 139.386528 304.312205 142.6464 
L 304.312205 175.24512 
Q 304.312205 178.504992 313.351805 178.504992 
z
" clip-path="url(#p46642fdee0)" style="fill: #eaf3fb; stroke: #1d5f8f; stroke-width: 1.2; stroke-linejoin: miter"/>
   </g>
   <g id="patch_5">
    <path d="M 313.351805 220.611672 
L 490.377305 220.611672 
Q 499.416905 220.611672 499.416905 217.3518 
L 499.416905 184.75308 
Q 499.416905 181.493208 490.377305 181.493208 
L 313.351805 181.493208 
Q 304.312205 181.493208 304.312205 184.75308 
L 304.312205 217.3518 
Q 304.312205 220.611672 313.351805 220.611672 
z
" clip-path="url(#p46642fdee0)" style="fill: #fff2e7; stroke: #c96712; stroke-width: 1.2; stroke-linejoin: miter"/>
   </g>
   <g id="patch_6">
    <path d="M 554.407805 261.631728 
L 754.032305 261.631728 
Q 767.591705 261.631728 767.591705 256.74192 
L 767.591705 77.44896 
Q 767.591705 72.559152 754.032305 72.559152 
L 554.407805 72.559152 
Q 540.848405 72.559152 540.848405 77.44896 
L 540.848405 256.74192 
Q 540.848405 261.631728 554.407805 261.631728 
z
" clip-path="url(#p46642fdee0)" style="fill: #fff2e7; stroke: #c96712; stroke-width: 1.6; stroke-linejoin: miter"/>
   </g>
   <g id="patch_7">
    <path d="M 241.526231 167.09544 
Q 265.140505 167.09544 286.742317 167.09544 
" clip-path="url(#p46642fdee0)" style="fill: none; stroke: #555555; stroke-width: 1.8; stroke-linecap: round"/>
    <path d="M 279.542317 163.49544 
L 286.742317 167.09544 
L 279.542317 170.69544 
L 279.542317 163.49544 
z
" clip-path="url(#p46642fdee0)" style="fill: #555555; stroke: #555555; stroke-width: 1.8; stroke-linecap: round"/>
   </g>
   <g id="patch_8">
    <path d="M 512.719473 167.09544 
Q 530.678182 167.09544 546.62443 167.09544 
" clip-path="url(#p46642fdee0)" style="fill: none; stroke: #555555; stroke-width: 1.8; stroke-linecap: round"/>
    <path d="M 539.42443 163.49544 
L 546.62443 167.09544 
L 539.42443 170.69544 
L 539.42443 163.49544 
z
" clip-path="url(#p46642fdee0)" style="fill: #555555; stroke: #555555; stroke-width: 1.8; stroke-linecap: round"/>
   </g>
   <g id="text_1">
    <!-- 1. Behavior cloning -->
    <g transform="translate(68.529305 118.861868)scale(0.116 -0.116)">
     <defs>
      <path id="DejaVuSans-Bold-31" d="M 750 831 
L 1813 831 
L 1813 3847 
L 722 3622 
L 722 4441 
L 1806 4666 
L 2950 4666 
L 2950 831 
L 4013 831 
L 4013 0 
L 750 0 
L 750 831 
z
" transform="scale(0.015625)"/>
      <path id="DejaVuSans-Bold-2e" d="M 653 1209 
L 1778 1209 
L 1778 0 
L 653 0 
L 653 1209 
z
" transform="scale(0.015625)"/>
      <path id="DejaVuSans-Bold-20" transform="scale(0.015625)"/>
      <path id="DejaVuSans-Bold-42" d="M 2456 2859 
Q 2741 2859 2887 2984 
Q 3034 3109 3034 3353 
Q 3034 3594 2887 3720 
Q 2741 3847 2456 3847 
L 1791 3847 
L 1791 2859 
L 2456 2859 
z
M 2497 819 
Q 2859 819 3042 972 
Q 3225 1125 3225 1434 
Q 3225 1738 3044 1889 
Q 2863 2041 2497 2041 
L 1791 2041 
L 1791 819 
L 2497 819 
z
M 3616 2497 
Q 4003 2384 4215 2081 
Q 4428 1778 4428 1338 
Q 4428 663 3972 331 
Q 3516 0 2584 0 
L 588 0 
L 588 4666 
L 2394 4666 
Q 3366 4666 3802 4372 
Q 4238 4078 4238 3431 
Q 4238 3091 4078 2852 
Q 3919 2613 3616 2497 
z
" transform="scale(0.015625)"/>
      <path id="DejaVuSans-Bold-65" d="M 4031 1759 
L 4031 1441 
L 1416 1441 
Q 1456 1047 1700 850 
Q 1944 653 2381 653 
Q 2734 653 3104 758 
Q 3475 863 3866 1075 
L 3866 213 
Q 3469 63 3072 -14 
Q 2675 -91 2278 -91 
Q 1328 -91 801 392 
Q 275 875 275 1747 
Q 275 2603 792 3093 
Q 1309 3584 2216 3584 
Q 3041 3584 3536 3087 
Q 4031 2591 4031 1759 
z
M 2881 2131 
Q 2881 2450 2695 2645 
Q 2509 2841 2209 2841 
Q 1884 2841 1681 2658 
Q 1478 2475 1428 2131 
L 2881 2131 
z
" transform="scale(0.015625)"/>
      <path id="DejaVuSans-Bold-68" d="M 4056 2131 
L 4056 0 
L 2931 0 
L 2931 347 
L 2931 1625 
Q 2931 2084 2911 2256 
Q 2891 2428 2841 2509 
Q 2775 2619 2662 2680 
Q 2550 2741 2406 2741 
Q 2056 2741 1856 2470 
Q 1656 2200 1656 1722 
L 1656 0 
L 538 0 
L 538 4863 
L 1656 4863 
L 1656 2988 
Q 1909 3294 2193 3439 
Q 2478 3584 2822 3584 
Q 3428 3584 3742 3212 
Q 4056 2841 4056 2131 
z
" transform="scale(0.015625)"/>
      <path id="DejaVuSans-Bold-61" d="M 2106 1575 
Q 1756 1575 1579 1456 
Q 1403 1338 1403 1106 
Q 1403 894 1545 773 
Q 1688 653 1941 653 
Q 2256 653 2472 879 
Q 2688 1106 2688 1447 
L 2688 1575 
L 2106 1575 
z
M 3816 1997 
L 3816 0 
L 2688 0 
L 2688 519 
Q 2463 200 2181 54 
Q 1900 -91 1497 -91 
Q 953 -91 614 226 
Q 275 544 275 1050 
Q 275 1666 698 1953 
Q 1122 2241 2028 2241 
L 2688 2241 
L 2688 2328 
Q 2688 2594 2478 2717 
Q 2269 2841 1825 2841 
Q 1466 2841 1156 2769 
Q 847 2697 581 2553 
L 581 3406 
Q 941 3494 1303 3539 
Q 1666 3584 2028 3584 
Q 2975 3584 3395 3211 
Q 3816 2838 3816 1997 
z
" transform="scale(0.015625)"/>
      <path id="DejaVuSans-Bold-76" d="M 97 3500 
L 1216 3500 
L 2088 1081 
L 2956 3500 
L 4078 3500 
L 2700 0 
L 1472 0 
L 97 3500 
z
" transform="scale(0.015625)"/>
      <path id="DejaVuSans-Bold-69" d="M 538 3500 
L 1656 3500 
L 1656 0 
L 538 0 
L 538 3500 
z
M 538 4863 
L 1656 4863 
L 1656 3950 
L 538 3950 
L 538 4863 
z
" transform="scale(0.015625)"/>
      <path id="DejaVuSans-Bold-6f" d="M 2203 2784 
Q 1831 2784 1636 2517 
Q 1441 2250 1441 1747 
Q 1441 1244 1636 976 
Q 1831 709 2203 709 
Q 2569 709 2762 976 
Q 2956 1244 2956 1747 
Q 2956 2250 2762 2517 
Q 2569 2784 2203 2784 
z
M 2203 3584 
Q 3106 3584 3614 3096 
Q 4122 2609 4122 1747 
Q 4122 884 3614 396 
Q 3106 -91 2203 -91 
Q 1297 -91 786 396 
Q 275 884 275 1747 
Q 275 2609 786 3096 
Q 1297 3584 2203 3584 
z
" transform="scale(0.015625)"/>
      <path id="DejaVuSans-Bold-72" d="M 3138 2547 
Q 2991 2616 2845 2648 
Q 2700 2681 2553 2681 
Q 2122 2681 1889 2404 
Q 1656 2128 1656 1613 
L 1656 0 
L 538 0 
L 538 3500 
L 1656 3500 
L 1656 2925 
Q 1872 3269 2151 3426 
Q 2431 3584 2822 3584 
Q 2878 3584 2943 3579 
Q 3009 3575 3134 3559 
L 3138 2547 
z
" transform="scale(0.015625)"/>
      <path id="DejaVuSans-Bold-63" d="M 3366 3391 
L 3366 2478 
Q 3138 2634 2908 2709 
Q 2678 2784 2431 2784 
Q 1963 2784 1702 2511 
Q 1441 2238 1441 1747 
Q 1441 1256 1702 982 
Q 1963 709 2431 709 
Q 2694 709 2930 787 
Q 3166 866 3366 1019 
L 3366 103 
Q 3103 6 2833 -42 
Q 2563 -91 2291 -91 
Q 1344 -91 809 395 
Q 275 881 275 1747 
Q 275 2613 809 3098 
Q 1344 3584 2291 3584 
Q 2566 3584 2833 3536 
Q 3100 3488 3366 3391 
z
" transform="scale(0.015625)"/>
      <path id="DejaVuSans-Bold-6c" d="M 538 4863 
L 1656 4863 
L 1656 0 
L 538 0 
L 538 4863 
z
" transform="scale(0.015625)"/>
      <path id="DejaVuSans-Bold-6e" d="M 4056 2131 
L 4056 0 
L 2931 0 
L 2931 347 
L 2931 1631 
Q 2931 2084 2911 2256 
Q 2891 2428 2841 2509 
Q 2775 2619 2662 2680 
Q 2550 2741 2406 2741 
Q 2056 2741 1856 2470 
Q 1656 2200 1656 1722 
L 1656 0 
L 538 0 
L 538 3500 
L 1656 3500 
L 1656 2988 
Q 1909 3294 2193 3439 
Q 2478 3584 2822 3584 
Q 3428 3584 3742 3212 
Q 4056 2841 4056 2131 
z
" transform="scale(0.015625)"/>
      <path id="DejaVuSans-Bold-67" d="M 2919 594 
Q 2688 288 2409 144 
Q 2131 0 1766 0 
Q 1125 0 706 504 
Q 288 1009 288 1791 
Q 288 2575 706 3076 
Q 1125 3578 1766 3578 
Q 2131 3578 2409 3434 
Q 2688 3291 2919 2981 
L 2919 3500 
L 4044 3500 
L 4044 353 
Q 4044 -491 3511 -936 
Q 2978 -1381 1966 -1381 
Q 1638 -1381 1331 -1331 
Q 1025 -1281 716 -1178 
L 716 -306 
Q 1009 -475 1290 -558 
Q 1572 -641 1856 -641 
Q 2406 -641 2662 -400 
Q 2919 -159 2919 353 
L 2919 594 
z
M 2181 2772 
Q 1834 2772 1640 2515 
Q 1447 2259 1447 1791 
Q 1447 1309 1634 1061 
Q 1822 813 2181 813 
Q 2531 813 2725 1069 
Q 2919 1325 2919 1791 
Q 2919 2259 2725 2515 
Q 2531 2772 2181 2772 
z
" transform="scale(0.015625)"/>
     </defs>
     <use xlink:href="#DejaVuSans-Bold-31"/>
     <use xlink:href="#DejaVuSans-Bold-2e" x="69.580078"/>
     <use xlink:href="#DejaVuSans-Bold-20" x="107.568359"/>
     <use xlink:href="#DejaVuSans-Bold-42" x="142.382812"/>
     <use xlink:href="#DejaVuSans-Bold-65" x="218.603516"/>
     <use xlink:href="#DejaVuSans-Bold-68" x="286.425781"/>
     <use xlink:href="#DejaVuSans-Bold-61" x="357.617188"/>
     <use xlink:href="#DejaVuSans-Bold-76" x="425.097656"/>
     <use xlink:href="#DejaVuSans-Bold-69" x="490.283203"/>
     <use xlink:href="#DejaVuSans-Bold-6f" x="524.560547"/>
     <use xlink:href="#DejaVuSans-Bold-72" x="593.261719"/>
     <use xlink:href="#DejaVuSans-Bold-20" x="642.578125"/>
     <use xlink:href="#DejaVuSans-Bold-63" x="677.392578"/>
     <use xlink:href="#DejaVuSans-Bold-6c" x="736.669922"/>
     <use xlink:href="#DejaVuSans-Bold-6f" x="770.947266"/>
     <use xlink:href="#DejaVuSans-Bold-6e" x="839.648438"/>
     <use xlink:href="#DejaVuSans-Bold-69" x="910.839844"/>
     <use xlink:href="#DejaVuSans-Bold-6e" x="945.117188"/>
     <use xlink:href="#DejaVuSans-Bold-67" x="1016.308594"/>
    </g>
   </g>
   <g id="text_2">
    <!-- Training sample: $(o_t,\ell_i,a_t)$ -->
    <g transform="translate(68.529305 142.09672)scale(0.1 -0.1)">
     <defs>
      <path id="DejaVuSans-54" d="M -19 4666 
L 3928 4666 
L 3928 4134 
L 2272 4134 
L 2272 0 
L 1638 0 
L 1638 4134 
L -19 4134 
L -19 4666 
z
" transform="scale(0.015625)"/>
      <path id="DejaVuSans-72" d="M 2631 2963 
Q 2534 3019 2420 3045 
Q 2306 3072 2169 3072 
Q 1681 3072 1420 2755 
Q 1159 2438 1159 1844 
L 1159 0 
L 581 0 
L 581 3500 
L 1159 3500 
L 1159 2956 
Q 1341 3275 1631 3429 
Q 1922 3584 2338 3584 
Q 2397 3584 2469 3576 
Q 2541 3569 2628 3553 
L 2631 2963 
z
" transform="scale(0.015625)"/>
      <path id="DejaVuSans-61" d="M 2194 1759 
Q 1497 1759 1228 1600 
Q 959 1441 959 1056 
Q 959 750 1161 570 
Q 1363 391 1709 391 
Q 2188 391 2477 730 
Q 2766 1069 2766 1631 
L 2766 1759 
L 2194 1759 
z
M 3341 1997 
L 3341 0 
L 2766 0 
L 2766 531 
Q 2569 213 2275 61 
Q 1981 -91 1556 -91 
Q 1019 -91 701 211 
Q 384 513 384 1019 
Q 384 1609 779 1909 
Q 1175 2209 1959 2209 
L 2766 2209 
L 2766 2266 
Q 2766 2663 2505 2880 
Q 2244 3097 1772 3097 
Q 1472 3097 1187 3025 
Q 903 2953 641 2809 
L 641 3341 
Q 956 3463 1253 3523 
Q 1550 3584 1831 3584 
Q 2591 3584 2966 3190 
Q 3341 2797 3341 1997 
z
" transform="scale(0.015625)"/>
      <path id="DejaVuSans-69" d="M 603 3500 
L 1178 3500 
L 1178 0 
L 603 0 
L 603 3500 
z
M 603 4863 
L 1178 4863 
L 1178 4134 
L 603 4134 
L 603 4863 
z
" transform="scale(0.015625)"/>
      <path id="DejaVuSans-6e" d="M 3513 2113 
L 3513 0 
L 2938 0 
L 2938 2094 
Q 2938 2591 2744 2837 
Q 2550 3084 2163 3084 
Q 1697 3084 1428 2787 
Q 1159 2491 1159 1978 
L 1159 0 
L 581 0 
L 581 3500 
L 1159 3500 
L 1159 2956 
Q 1366 3272 1645 3428 
Q 1925 3584 2291 3584 
Q 2894 3584 3203 3211 
Q 3513 2838 3513 2113 
z
" transform="scale(0.015625)"/>
      <path id="DejaVuSans-67" d="M 2906 1791 
Q 2906 2416 2648 2759 
Q 2391 3103 1925 3103 
Q 1463 3103 1205 2759 
Q 947 2416 947 1791 
Q 947 1169 1205 825 
Q 1463 481 1925 481 
Q 2391 481 2648 825 
Q 2906 1169 2906 1791 
z
M 3481 434 
Q 3481 -459 3084 -895 
Q 2688 -1331 1869 -1331 
Q 1566 -1331 1297 -1286 
Q 1028 -1241 775 -1147 
L 775 -588 
Q 1028 -725 1275 -790 
Q 1522 -856 1778 -856 
Q 2344 -856 2625 -561 
Q 2906 -266 2906 331 
L 2906 616 
Q 2728 306 2450 153 
Q 2172 0 1784 0 
Q 1141 0 747 490 
Q 353 981 353 1791 
Q 353 2603 747 3093 
Q 1141 3584 1784 3584 
Q 2172 3584 2450 3431 
Q 2728 3278 2906 2969 
L 2906 3500 
L 3481 3500 
L 3481 434 
z
" transform="scale(0.015625)"/>
      <path id="DejaVuSans-20" transform="scale(0.015625)"/>
      <path id="DejaVuSans-73" d="M 2834 3397 
L 2834 2853 
Q 2591 2978 2328 3040 
Q 2066 3103 1784 3103 
Q 1356 3103 1142 2972 
Q 928 2841 928 2578 
Q 928 2378 1081 2264 
Q 1234 2150 1697 2047 
L 1894 2003 
Q 2506 1872 2764 1633 
Q 3022 1394 3022 966 
Q 3022 478 2636 193 
Q 2250 -91 1575 -91 
Q 1294 -91 989 -36 
Q 684 19 347 128 
L 347 722 
Q 666 556 975 473 
Q 1284 391 1588 391 
Q 1994 391 2212 530 
Q 2431 669 2431 922 
Q 2431 1156 2273 1281 
Q 2116 1406 1581 1522 
L 1381 1569 
Q 847 1681 609 1914 
Q 372 2147 372 2553 
Q 372 3047 722 3315 
Q 1072 3584 1716 3584 
Q 2034 3584 2315 3537 
Q 2597 3491 2834 3397 
z
" transform="scale(0.015625)"/>
      <path id="DejaVuSans-6d" d="M 3328 2828 
Q 3544 3216 3844 3400 
Q 4144 3584 4550 3584 
Q 5097 3584 5394 3201 
Q 5691 2819 5691 2113 
L 5691 0 
L 5113 0 
L 5113 2094 
Q 5113 2597 4934 2840 
Q 4756 3084 4391 3084 
Q 3944 3084 3684 2787 
Q 3425 2491 3425 1978 
L 3425 0 
L 2847 0 
L 2847 2094 
Q 2847 2600 2669 2842 
Q 2491 3084 2119 3084 
Q 1678 3084 1418 2786 
Q 1159 2488 1159 1978 
L 1159 0 
L 581 0 
L 581 3500 
L 1159 3500 
L 1159 2956 
Q 1356 3278 1631 3431 
Q 1906 3584 2284 3584 
Q 2666 3584 2933 3390 
Q 3200 3197 3328 2828 
z
" transform="scale(0.015625)"/>
      <path id="DejaVuSans-70" d="M 1159 525 
L 1159 -1331 
L 581 -1331 
L 581 3500 
L 1159 3500 
L 1159 2969 
Q 1341 3281 1617 3432 
Q 1894 3584 2278 3584 
Q 2916 3584 3314 3078 
Q 3713 2572 3713 1747 
Q 3713 922 3314 415 
Q 2916 -91 2278 -91 
Q 1894 -91 1617 61 
Q 1341 213 1159 525 
z
M 3116 1747 
Q 3116 2381 2855 2742 
Q 2594 3103 2138 3103 
Q 1681 3103 1420 2742 
Q 1159 2381 1159 1747 
Q 1159 1113 1420 752 
Q 1681 391 2138 391 
Q 2594 391 2855 752 
Q 3116 1113 3116 1747 
z
" transform="scale(0.015625)"/>
      <path id="DejaVuSans-6c" d="M 603 4863 
L 1178 4863 
L 1178 0 
L 603 0 
L 603 4863 
z
" transform="scale(0.015625)"/>
      <path id="DejaVuSans-65" d="M 3597 1894 
L 3597 1613 
L 953 1613 
Q 991 1019 1311 708 
Q 1631 397 2203 397 
Q 2534 397 2845 478 
Q 3156 559 3463 722 
L 3463 178 
Q 3153 47 2828 -22 
Q 2503 -91 2169 -91 
Q 1331 -91 842 396 
Q 353 884 353 1716 
Q 353 2575 817 3079 
Q 1281 3584 2069 3584 
Q 2775 3584 3186 3129 
Q 3597 2675 3597 1894 
z
M 3022 2063 
Q 3016 2534 2758 2815 
Q 2500 3097 2075 3097 
Q 1594 3097 1305 2825 
Q 1016 2553 972 2059 
L 3022 2063 
z
" transform="scale(0.015625)"/>
      <path id="DejaVuSans-3a" d="M 750 794 
L 1409 794 
L 1409 0 
L 750 0 
L 750 794 
z
M 750 3309 
L 1409 3309 
L 1409 2516 
L 750 2516 
L 750 3309 
z
" transform="scale(0.015625)"/>
      <path id="DejaVuSans-28" d="M 1984 4856 
Q 1566 4138 1362 3434 
Q 1159 2731 1159 2009 
Q 1159 1288 1364 580 
Q 1569 -128 1984 -844 
L 1484 -844 
Q 1016 -109 783 600 
Q 550 1309 550 2009 
Q 550 2706 781 3412 
Q 1013 4119 1484 4856 
L 1984 4856 
z
" transform="scale(0.015625)"/>
      <path id="DejaVuSans-Oblique-6f" d="M 1625 -91 
Q 1009 -91 651 289 
Q 294 669 294 1325 
Q 294 1706 417 2101 
Q 541 2497 738 2766 
Q 1047 3184 1428 3384 
Q 1809 3584 2291 3584 
Q 2888 3584 3255 3212 
Q 3622 2841 3622 2241 
Q 3622 1825 3500 1412 
Q 3378 1000 3181 728 
Q 2875 309 2494 109 
Q 2113 -91 1625 -91 
z
M 891 1344 
Q 891 869 1089 633 
Q 1288 397 1691 397 
Q 2269 397 2648 901 
Q 3028 1406 3028 2181 
Q 3028 2634 2825 2865 
Q 2622 3097 2228 3097 
Q 1903 3097 1650 2945 
Q 1397 2794 1197 2484 
Q 1050 2253 970 1956 
Q 891 1659 891 1344 
z
" transform="scale(0.015625)"/>
      <path id="DejaVuSans-Oblique-74" d="M 2706 3500 
L 2619 3053 
L 1472 3053 
L 1100 1153 
Q 1081 1047 1072 975 
Q 1063 903 1063 863 
Q 1063 663 1183 572 
Q 1303 481 1569 481 
L 2150 481 
L 2053 0 
L 1503 0 
Q 991 0 739 200 
Q 488 400 488 806 
Q 488 878 497 964 
Q 506 1050 525 1153 
L 897 3053 
L 409 3053 
L 500 3500 
L 978 3500 
L 1172 4494 
L 1747 4494 
L 1556 3500 
L 2706 3500 
z
" transform="scale(0.015625)"/>
      <path id="DejaVuSans-2c" d="M 750 794 
L 1409 794 
L 1409 256 
L 897 -744 
L 494 -744 
L 750 256 
L 750 794 
z
" transform="scale(0.015625)"/>
      <path id="DejaVuSans-Oblique-2113" d="M 950 838 
Q 1078 213 1350 213 
Q 1531 213 1766 572 
L 2181 572 
Q 1994 253 1775 88 
Q 1538 -91 1319 -91 
Q 831 -91 634 344 
L 400 0 
L -88 0 
Q 250 459 500 888 
Q 469 1131 469 1397 
Q 469 1872 566 2347 
Q 931 4131 1256 4497 
Q 1481 4750 1866 4750 
Q 2256 4750 2256 4209 
Q 2253 3966 2197 3675 
Q 1972 2484 950 838 
z
M 947 1656 
Q 1531 2744 1709 3613 
Q 1803 4072 1803 4191 
Q 1803 4406 1725 4406 
Q 1384 4134 1081 2516 
Q 997 2063 947 1656 
z
" transform="scale(0.015625)"/>
      <path id="DejaVuSans-Oblique-69" d="M 1172 4863 
L 1747 4863 
L 1606 4134 
L 1031 4134 
L 1172 4863 
z
M 909 3500 
L 1484 3500 
L 800 0 
L 225 0 
L 909 3500 
z
" transform="scale(0.015625)"/>
      <path id="DejaVuSans-Oblique-61" d="M 3438 1997 
L 3047 0 
L 2472 0 
L 2578 531 
Q 2325 219 2001 64 
Q 1678 -91 1281 -91 
Q 834 -91 548 182 
Q 263 456 263 884 
Q 263 1497 752 1853 
Q 1241 2209 2100 2209 
L 2900 2209 
L 2931 2363 
Q 2938 2388 2941 2417 
Q 2944 2447 2944 2509 
Q 2944 2788 2717 2942 
Q 2491 3097 2081 3097 
Q 1800 3097 1504 3025 
Q 1209 2953 897 2809 
L 997 3341 
Q 1322 3463 1633 3523 
Q 1944 3584 2234 3584 
Q 2853 3584 3176 3315 
Q 3500 3047 3500 2534 
Q 3500 2431 3484 2292 
Q 3469 2153 3438 1997 
z
M 2816 1759 
L 2241 1759 
Q 1534 1759 1195 1570 
Q 856 1381 856 984 
Q 856 709 1029 553 
Q 1203 397 1509 397 
Q 1978 397 2328 733 
Q 2678 1069 2791 1631 
L 2816 1759 
z
" transform="scale(0.015625)"/>
      <path id="DejaVuSans-29" d="M 513 4856 
L 1013 4856 
Q 1481 4119 1714 3412 
Q 1947 2706 1947 2009 
Q 1947 1309 1714 600 
Q 1481 -109 1013 -844 
L 513 -844 
Q 928 -128 1133 580 
Q 1338 1288 1338 2009 
Q 1338 2731 1133 3434 
Q 928 4138 513 4856 
z
" transform="scale(0.015625)"/>
     </defs>
     <use xlink:href="#DejaVuSans-54" transform="translate(0 0.015625)"/>
     <use xlink:href="#DejaVuSans-72" transform="translate(61.083984 0.015625)"/>
     <use xlink:href="#DejaVuSans-61" transform="translate(102.197266 0.015625)"/>
     <use xlink:href="#DejaVuSans-69" transform="translate(163.476562 0.015625)"/>
     <use xlink:href="#DejaVuSans-6e" transform="translate(191.259766 0.015625)"/>
     <use xlink:href="#DejaVuSans-69" transform="translate(254.638672 0.015625)"/>
     <use xlink:href="#DejaVuSans-6e" transform="translate(282.421875 0.015625)"/>
     <use xlink:href="#DejaVuSans-67" transform="translate(345.800781 0.015625)"/>
     <use xlink:href="#DejaVuSans-20" transform="translate(409.277344 0.015625)"/>
     <use xlink:href="#DejaVuSans-73" transform="translate(441.064453 0.015625)"/>
     <use xlink:href="#DejaVuSans-61" transform="translate(493.164062 0.015625)"/>
     <use xlink:href="#DejaVuSans-6d" transform="translate(554.443359 0.015625)"/>
     <use xlink:href="#DejaVuSans-70" transform="translate(651.855469 0.015625)"/>
     <use xlink:href="#DejaVuSans-6c" transform="translate(715.332031 0.015625)"/>
     <use xlink:href="#DejaVuSans-65" transform="translate(743.115234 0.015625)"/>
     <use xlink:href="#DejaVuSans-3a" transform="translate(804.638672 0.015625)"/>
     <use xlink:href="#DejaVuSans-20" transform="translate(838.330078 0.015625)"/>
     <use xlink:href="#DejaVuSans-28" transform="translate(870.117188 0.015625)"/>
     <use xlink:href="#DejaVuSans-Oblique-6f" transform="translate(909.130859 0.015625)"/>
     <use xlink:href="#DejaVuSans-Oblique-74" transform="translate(970.3125 -16.390625)scale(0.7)"/>
     <use xlink:href="#DejaVuSans-2c" transform="translate(1000.493164 0.015625)"/>
     <use xlink:href="#DejaVuSans-Oblique-2113" transform="translate(1051.762695 0.015625)"/>
     <use xlink:href="#DejaVuSans-Oblique-69" transform="translate(1093.071289 -16.390625)scale(0.7)"/>
     <use xlink:href="#DejaVuSans-2c" transform="translate(1115.253906 0.015625)"/>
     <use xlink:href="#DejaVuSans-Oblique-61" transform="translate(1166.523438 0.015625)"/>
     <use xlink:href="#DejaVuSans-Oblique-74" transform="translate(1227.802734 -16.390625)scale(0.7)"/>
     <use xlink:href="#DejaVuSans-29" transform="translate(1257.983398 0.015625)"/>
    </g>
    <!--  -->
    <g transform="translate(68.529305 153.694767)scale(0.1 -0.1)"/>
    <!-- $\mathcal{L}_{BC}=-\log p_\theta(a_t\mid o_t,\ell_i)$ -->
    <g transform="translate(68.529305 165.524454)scale(0.1 -0.1)">
     <defs>
      <path id="STIXNonUnicode-Italic-e238" d="M 4070 915 
L 4179 800 
Q 3347 -45 2413 -45 
Q 2157 -45 1850 26 
Q 1395 122 1146 122 
Q 1005 122 672 61 
Q 339 0 192 0 
L 230 154 
Q 582 154 730 749 
L 1178 2566 
Q 1286 3008 1516 3353 
Q 1747 3699 2025 3894 
Q 2304 4090 2585 4189 
Q 2867 4288 3123 4288 
Q 3443 4288 3593 4083 
Q 3744 3878 3744 3584 
Q 3744 3347 3593 3200 
Q 3443 3053 3226 3053 
Q 3085 3053 2995 3149 
Q 2906 3245 2906 3379 
Q 2906 3482 2957 3552 
Q 3008 3622 3065 3644 
Q 3123 3667 3174 3705 
Q 3226 3744 3226 3789 
Q 3226 4032 2854 4032 
Q 2522 4032 2310 3785 
Q 2099 3539 1990 3132 
Q 1882 2726 1795 2284 
Q 1709 1843 1549 1363 
Q 1389 883 1158 589 
L 1158 563 
Q 1363 704 1888 704 
Q 2227 704 2460 544 
Q 2694 384 2963 384 
Q 3507 384 4070 915 
z
" transform="scale(0.015625)"/>
      <path id="DejaVuSans-Oblique-42" d="M 1081 4666 
L 2694 4666 
Q 3350 4666 3675 4422 
Q 4000 4178 4000 3688 
Q 4000 3238 3720 2911 
Q 3441 2584 2988 2516 
Q 3375 2428 3569 2181 
Q 3763 1934 3763 1522 
Q 3763 819 3242 409 
Q 2722 0 1819 0 
L 172 0 
L 1081 4666 
z
M 1234 2228 
L 903 519 
L 1919 519 
Q 2491 519 2800 781 
Q 3109 1044 3109 1522 
Q 3109 1891 2904 2059 
Q 2700 2228 2247 2228 
L 1234 2228 
z
M 1606 4147 
L 1331 2741 
L 2272 2741 
Q 2775 2741 3058 2959 
Q 3341 3178 3341 3566 
Q 3341 3869 3150 4008 
Q 2959 4147 2541 4147 
L 1606 4147 
z
" transform="scale(0.015625)"/>
      <path id="DejaVuSans-Oblique-43" d="M 4447 4306 
L 4319 3641 
Q 4019 3944 3683 4091 
Q 3347 4238 2956 4238 
Q 2422 4238 2017 3981 
Q 1613 3725 1319 3200 
Q 1131 2863 1032 2486 
Q 934 2109 934 1728 
Q 934 1091 1264 756 
Q 1594 422 2222 422 
Q 2656 422 3056 561 
Q 3456 700 3834 978 
L 3688 231 
Q 3316 72 2936 -9 
Q 2556 -91 2175 -91 
Q 1278 -91 773 396 
Q 269 884 269 1753 
Q 269 2309 461 2846 
Q 653 3384 1013 3828 
Q 1394 4300 1883 4525 
Q 2372 4750 3022 4750 
Q 3422 4750 3780 4639 
Q 4138 4528 4447 4306 
z
" transform="scale(0.015625)"/>
      <path id="DejaVuSans-3d" d="M 678 2906 
L 4684 2906 
L 4684 2381 
L 678 2381 
L 678 2906 
z
M 678 1631 
L 4684 1631 
L 4684 1100 
L 678 1100 
L 678 1631 
z
" transform="scale(0.015625)"/>
      <path id="DejaVuSans-2212" d="M 678 2272 
L 4684 2272 
L 4684 1741 
L 678 1741 
L 678 2272 
z
" transform="scale(0.015625)"/>
      <path id="DejaVuSans-6f" d="M 1959 3097 
Q 1497 3097 1228 2736 
Q 959 2375 959 1747 
Q 959 1119 1226 758 
Q 1494 397 1959 397 
Q 2419 397 2687 759 
Q 2956 1122 2956 1747 
Q 2956 2369 2687 2733 
Q 2419 3097 1959 3097 
z
M 1959 3584 
Q 2709 3584 3137 3096 
Q 3566 2609 3566 1747 
Q 3566 888 3137 398 
Q 2709 -91 1959 -91 
Q 1206 -91 779 398 
Q 353 888 353 1747 
Q 353 2609 779 3096 
Q 1206 3584 1959 3584 
z
" transform="scale(0.015625)"/>
      <path id="DejaVuSans-Oblique-70" d="M 3175 2156 
Q 3175 2616 2975 2859 
Q 2775 3103 2400 3103 
Q 2144 3103 1911 2972 
Q 1678 2841 1497 2591 
Q 1319 2344 1212 1994 
Q 1106 1644 1106 1300 
Q 1106 863 1306 627 
Q 1506 391 1875 391 
Q 2147 391 2380 519 
Q 2613 647 2778 891 
Q 2956 1147 3065 1494 
Q 3175 1841 3175 2156 
z
M 1394 2969 
Q 1625 3272 1939 3428 
Q 2253 3584 2638 3584 
Q 3175 3584 3472 3232 
Q 3769 2881 3769 2247 
Q 3769 1728 3584 1258 
Q 3400 788 3053 416 
Q 2822 169 2531 39 
Q 2241 -91 1919 -91 
Q 1547 -91 1294 64 
Q 1041 219 916 525 
L 556 -1331 
L -19 -1331 
L 922 3500 
L 1497 3500 
L 1394 2969 
z
" transform="scale(0.015625)"/>
      <path id="DejaVuSans-Oblique-3b8" d="M 2913 2219 
L 925 2219 
Q 791 1284 928 888 
Q 1100 400 1566 400 
Q 2034 400 2391 891 
Q 2703 1322 2913 2219 
z
M 3009 2750 
Q 3094 3638 2984 3950 
Q 2813 4444 2353 4444 
Q 1875 4444 1525 3956 
Q 1250 3563 1034 2750 
L 3009 2750 
z
M 2444 4913 
Q 3194 4913 3494 4250 
Q 3794 3591 3566 2422 
Q 3341 1256 2781 594 
Q 2225 -72 1475 -72 
Q 722 -72 425 594 
Q 128 1256 353 2422 
Q 581 3591 1134 4250 
Q 1691 4913 2444 4913 
z
" transform="scale(0.015625)"/>
      <path id="DejaVuSans-2223" d="M 1350 4934 
L 1850 4934 
L 1850 -1369 
L 1350 -1369 
L 1350 4934 
z
" transform="scale(0.015625)"/>
     </defs>
     <use xlink:href="#STIXNonUnicode-Italic-e238" transform="translate(0 0.90625)"/>
     <use xlink:href="#DejaVuSans-Oblique-42" transform="translate(70.257019 -15.5)scale(0.7)"/>
     <use xlink:href="#DejaVuSans-Oblique-43" transform="translate(118.27948 -15.5)scale(0.7)"/>
     <use xlink:href="#DejaVuSans-3d" transform="translate(189.37323 0.90625)"/>
     <use xlink:href="#DejaVuSans-2212" transform="translate(312.127136 0.90625)"/>
     <use xlink:href="#DejaVuSans-6c" transform="translate(415.398621 0.90625)"/>
     <use xlink:href="#DejaVuSans-6f" transform="translate(443.181824 0.90625)"/>
     <use xlink:href="#DejaVuSans-67" transform="translate(504.363464 0.90625)"/>
     <use xlink:href="#DejaVuSans-Oblique-70" transform="translate(584.075703 0.90625)"/>
     <use xlink:href="#DejaVuSans-Oblique-3b8" transform="translate(647.552266 -15.5)scale(0.7)"/>
     <use xlink:href="#DejaVuSans-28" transform="translate(693.113789 0.90625)"/>
     <use xlink:href="#DejaVuSans-Oblique-61" transform="translate(732.127461 0.90625)"/>
     <use xlink:href="#DejaVuSans-Oblique-74" transform="translate(793.406758 -15.5)scale(0.7)"/>
     <use xlink:href="#DejaVuSans-2223" transform="translate(843.069844 0.90625)"/>
     <use xlink:href="#DejaVuSans-Oblique-6f" transform="translate(912.552266 0.90625)"/>
     <use xlink:href="#DejaVuSans-Oblique-74" transform="translate(973.733906 -15.5)scale(0.7)"/>
     <use xlink:href="#DejaVuSans-2c" transform="translate(1003.91457 0.90625)"/>
     <use xlink:href="#DejaVuSans-Oblique-2113" transform="translate(1055.184102 0.90625)"/>
     <use xlink:href="#DejaVuSans-Oblique-69" transform="translate(1096.492695 -15.5)scale(0.7)"/>
     <use xlink:href="#DejaVuSans-29" transform="translate(1118.675313 0.90625)"/>
    </g>
    <!--  -->
    <g transform="translate(68.529305 177.222501)scale(0.1 -0.1)"/>
    <!-- Learns expert action likelihood -->
    <g transform="translate(68.529305 188.800236)scale(0.1 -0.1)">
     <defs>
      <path id="DejaVuSans-4c" d="M 628 4666 
L 1259 4666 
L 1259 531 
L 3531 531 
L 3531 0 
L 628 0 
L 628 4666 
z
" transform="scale(0.015625)"/>
      <path id="DejaVuSans-78" d="M 3513 3500 
L 2247 1797 
L 3578 0 
L 2900 0 
L 1881 1375 
L 863 0 
L 184 0 
L 1544 1831 
L 300 3500 
L 978 3500 
L 1906 2253 
L 2834 3500 
L 3513 3500 
z
" transform="scale(0.015625)"/>
      <path id="DejaVuSans-74" d="M 1172 4494 
L 1172 3500 
L 2356 3500 
L 2356 3053 
L 1172 3053 
L 1172 1153 
Q 1172 725 1289 603 
Q 1406 481 1766 481 
L 2356 481 
L 2356 0 
L 1766 0 
Q 1100 0 847 248 
Q 594 497 594 1153 
L 594 3053 
L 172 3053 
L 172 3500 
L 594 3500 
L 594 4494 
L 1172 4494 
z
" transform="scale(0.015625)"/>
      <path id="DejaVuSans-63" d="M 3122 3366 
L 3122 2828 
Q 2878 2963 2633 3030 
Q 2388 3097 2138 3097 
Q 1578 3097 1268 2742 
Q 959 2388 959 1747 
Q 959 1106 1268 751 
Q 1578 397 2138 397 
Q 2388 397 2633 464 
Q 2878 531 3122 666 
L 3122 134 
Q 2881 22 2623 -34 
Q 2366 -91 2075 -91 
Q 1284 -91 818 406 
Q 353 903 353 1747 
Q 353 2603 823 3093 
Q 1294 3584 2113 3584 
Q 2378 3584 2631 3529 
Q 2884 3475 3122 3366 
z
" transform="scale(0.015625)"/>
      <path id="DejaVuSans-6b" d="M 581 4863 
L 1159 4863 
L 1159 1991 
L 2875 3500 
L 3609 3500 
L 1753 1863 
L 3688 0 
L 2938 0 
L 1159 1709 
L 1159 0 
L 581 0 
L 581 4863 
z
" transform="scale(0.015625)"/>
      <path id="DejaVuSans-68" d="M 3513 2113 
L 3513 0 
L 2938 0 
L 2938 2094 
Q 2938 2591 2744 2837 
Q 2550 3084 2163 3084 
Q 1697 3084 1428 2787 
Q 1159 2491 1159 1978 
L 1159 0 
L 581 0 
L 581 4863 
L 1159 4863 
L 1159 2956 
Q 1366 3272 1645 3428 
Q 1925 3584 2291 3584 
Q 2894 3584 3203 3211 
Q 3513 2838 3513 2113 
z
" transform="scale(0.015625)"/>
      <path id="DejaVuSans-64" d="M 2906 2969 
L 2906 4863 
L 3481 4863 
L 3481 0 
L 2906 0 
L 2906 525 
Q 2725 213 2448 61 
Q 2172 -91 1784 -91 
Q 1150 -91 751 415 
Q 353 922 353 1747 
Q 353 2572 751 3078 
Q 1150 3584 1784 3584 
Q 2172 3584 2448 3432 
Q 2725 3281 2906 2969 
z
M 947 1747 
Q 947 1113 1208 752 
Q 1469 391 1925 391 
Q 2381 391 2643 752 
Q 2906 1113 2906 1747 
Q 2906 2381 2643 2742 
Q 2381 3103 1925 3103 
Q 1469 3103 1208 2742 
Q 947 2381 947 1747 
z
" transform="scale(0.015625)"/>
     </defs>
     <use xlink:href="#DejaVuSans-4c"/>
     <use xlink:href="#DejaVuSans-65" x="53.962891"/>
     <use xlink:href="#DejaVuSans-61" x="115.486328"/>
     <use xlink:href="#DejaVuSans-72" x="176.765625"/>
     <use xlink:href="#DejaVuSans-6e" x="216.128906"/>
     <use xlink:href="#DejaVuSans-73" x="279.507812"/>
     <use xlink:href="#DejaVuSans-20" x="331.607422"/>
     <use xlink:href="#DejaVuSans-65" x="363.394531"/>
     <use xlink:href="#DejaVuSans-78" x="423.167969"/>
     <use xlink:href="#DejaVuSans-70" x="482.347656"/>
     <use xlink:href="#DejaVuSans-65" x="545.824219"/>
     <use xlink:href="#DejaVuSans-72" x="607.347656"/>
     <use xlink:href="#DejaVuSans-74" x="648.460938"/>
     <use xlink:href="#DejaVuSans-20" x="687.669922"/>
     <use xlink:href="#DejaVuSans-61" x="719.457031"/>
     <use xlink:href="#DejaVuSans-63" x="780.736328"/>
     <use xlink:href="#DejaVuSans-74" x="835.716797"/>
     <use xlink:href="#DejaVuSans-69" x="874.925781"/>
     <use xlink:href="#DejaVuSans-6f" x="902.708984"/>
     <use xlink:href="#DejaVuSans-6e" x="963.890625"/>
     <use xlink:href="#DejaVuSans-20" x="1027.269531"/>
     <use xlink:href="#DejaVuSans-6c" x="1059.056641"/>
     <use xlink:href="#DejaVuSans-69" x="1086.839844"/>
     <use xlink:href="#DejaVuSans-6b" x="1114.623047"/>
     <use xlink:href="#DejaVuSans-65" x="1168.908203"/>
     <use xlink:href="#DejaVuSans-6c" x="1230.431641"/>
     <use xlink:href="#DejaVuSans-69" x="1258.214844"/>
     <use xlink:href="#DejaVuSans-68" x="1285.998047"/>
     <use xlink:href="#DejaVuSans-6f" x="1349.376953"/>
     <use xlink:href="#DejaVuSans-6f" x="1410.558594"/>
     <use xlink:href="#DejaVuSans-64" x="1471.740234"/>
    </g>
    <!-- under the given task instruction. -->
    <g transform="translate(68.529305 200.37797)scale(0.1 -0.1)">
     <defs>
      <path id="DejaVuSans-75" d="M 544 1381 
L 544 3500 
L 1119 3500 
L 1119 1403 
Q 1119 906 1312 657 
Q 1506 409 1894 409 
Q 2359 409 2629 706 
Q 2900 1003 2900 1516 
L 2900 3500 
L 3475 3500 
L 3475 0 
L 2900 0 
L 2900 538 
Q 2691 219 2414 64 
Q 2138 -91 1772 -91 
Q 1169 -91 856 284 
Q 544 659 544 1381 
z
M 1991 3584 
L 1991 3584 
z
" transform="scale(0.015625)"/>
      <path id="DejaVuSans-76" d="M 191 3500 
L 800 3500 
L 1894 563 
L 2988 3500 
L 3597 3500 
L 2284 0 
L 1503 0 
L 191 3500 
z
" transform="scale(0.015625)"/>
      <path id="DejaVuSans-2e" d="M 684 794 
L 1344 794 
L 1344 0 
L 684 0 
L 684 794 
z
" transform="scale(0.015625)"/>
     </defs>
     <use xlink:href="#DejaVuSans-75"/>
     <use xlink:href="#DejaVuSans-6e" x="63.378906"/>
     <use xlink:href="#DejaVuSans-64" x="126.757812"/>
     <use xlink:href="#DejaVuSans-65" x="190.234375"/>
     <use xlink:href="#DejaVuSans-72" x="251.757812"/>
     <use xlink:href="#DejaVuSans-20" x="292.871094"/>
     <use xlink:href="#DejaVuSans-74" x="324.658203"/>
     <use xlink:href="#DejaVuSans-68" x="363.867188"/>
     <use xlink:href="#DejaVuSans-65" x="427.246094"/>
     <use xlink:href="#DejaVuSans-20" x="488.769531"/>
     <use xlink:href="#DejaVuSans-67" x="520.556641"/>
     <use xlink:href="#DejaVuSans-69" x="584.033203"/>
     <use xlink:href="#DejaVuSans-76" x="611.816406"/>
     <use xlink:href="#DejaVuSans-65" x="670.996094"/>
     <use xlink:href="#DejaVuSans-6e" x="732.519531"/>
     <use xlink:href="#DejaVuSans-20" x="795.898438"/>
     <use xlink:href="#DejaVuSans-74" x="827.685547"/>
     <use xlink:href="#DejaVuSans-61" x="866.894531"/>
     <use xlink:href="#DejaVuSans-73" x="928.173828"/>
     <use xlink:href="#DejaVuSans-6b" x="980.273438"/>
     <use xlink:href="#DejaVuSans-20" x="1038.183594"/>
     <use xlink:href="#DejaVuSans-69" x="1069.970703"/>
     <use xlink:href="#DejaVuSans-6e" x="1097.753906"/>
     <use xlink:href="#DejaVuSans-73" x="1161.132812"/>
     <use xlink:href="#DejaVuSans-74" x="1213.232422"/>
     <use xlink:href="#DejaVuSans-72" x="1252.441406"/>
     <use xlink:href="#DejaVuSans-75" x="1293.554688"/>
     <use xlink:href="#DejaVuSans-63" x="1356.933594"/>
     <use xlink:href="#DejaVuSans-74" x="1411.914062"/>
     <use xlink:href="#DejaVuSans-69" x="1451.123047"/>
     <use xlink:href="#DejaVuSans-6f" x="1478.90625"/>
     <use xlink:href="#DejaVuSans-6e" x="1540.087891"/>
     <use xlink:href="#DejaVuSans-2e" x="1603.466797"/>
    </g>
   </g>
   <g id="text_3">
    <!-- 2. Counterfactual instruction pair -->
    <g transform="translate(317.118305 107.995628)scale(0.116 -0.116)">
     <defs>
      <path id="DejaVuSans-Bold-32" d="M 1844 884 
L 3897 884 
L 3897 0 
L 506 0 
L 506 884 
L 2209 2388 
Q 2438 2594 2547 2791 
Q 2656 2988 2656 3200 
Q 2656 3528 2436 3728 
Q 2216 3928 1850 3928 
Q 1569 3928 1234 3808 
Q 900 3688 519 3450 
L 519 4475 
Q 925 4609 1322 4679 
Q 1719 4750 2100 4750 
Q 2938 4750 3402 4381 
Q 3866 4013 3866 3353 
Q 3866 2972 3669 2642 
Q 3472 2313 2841 1759 
L 1844 884 
z
" transform="scale(0.015625)"/>
      <path id="DejaVuSans-Bold-43" d="M 4288 256 
Q 3956 84 3597 -3 
Q 3238 -91 2847 -91 
Q 1681 -91 1000 561 
Q 319 1213 319 2328 
Q 319 3447 1000 4098 
Q 1681 4750 2847 4750 
Q 3238 4750 3597 4662 
Q 3956 4575 4288 4403 
L 4288 3438 
Q 3953 3666 3628 3772 
Q 3303 3878 2944 3878 
Q 2300 3878 1931 3465 
Q 1563 3053 1563 2328 
Q 1563 1606 1931 1193 
Q 2300 781 2944 781 
Q 3303 781 3628 887 
Q 3953 994 4288 1222 
L 4288 256 
z
" transform="scale(0.015625)"/>
      <path id="DejaVuSans-Bold-75" d="M 500 1363 
L 500 3500 
L 1625 3500 
L 1625 3150 
Q 1625 2866 1622 2436 
Q 1619 2006 1619 1863 
Q 1619 1441 1641 1255 
Q 1663 1069 1716 984 
Q 1784 875 1895 815 
Q 2006 756 2150 756 
Q 2500 756 2700 1025 
Q 2900 1294 2900 1772 
L 2900 3500 
L 4019 3500 
L 4019 0 
L 2900 0 
L 2900 506 
Q 2647 200 2364 54 
Q 2081 -91 1741 -91 
Q 1134 -91 817 281 
Q 500 653 500 1363 
z
" transform="scale(0.015625)"/>
      <path id="DejaVuSans-Bold-74" d="M 1759 4494 
L 1759 3500 
L 2913 3500 
L 2913 2700 
L 1759 2700 
L 1759 1216 
Q 1759 972 1856 886 
Q 1953 800 2241 800 
L 2816 800 
L 2816 0 
L 1856 0 
Q 1194 0 917 276 
Q 641 553 641 1216 
L 641 2700 
L 84 2700 
L 84 3500 
L 641 3500 
L 641 4494 
L 1759 4494 
z
" transform="scale(0.015625)"/>
      <path id="DejaVuSans-Bold-66" d="M 2841 4863 
L 2841 4128 
L 2222 4128 
Q 1984 4128 1890 4042 
Q 1797 3956 1797 3744 
L 1797 3500 
L 2753 3500 
L 2753 2700 
L 1797 2700 
L 1797 0 
L 678 0 
L 678 2700 
L 122 2700 
L 122 3500 
L 678 3500 
L 678 3744 
Q 678 4316 997 4589 
Q 1316 4863 1984 4863 
L 2841 4863 
z
" transform="scale(0.015625)"/>
      <path id="DejaVuSans-Bold-73" d="M 3272 3391 
L 3272 2541 
Q 2913 2691 2578 2766 
Q 2244 2841 1947 2841 
Q 1628 2841 1473 2761 
Q 1319 2681 1319 2516 
Q 1319 2381 1436 2309 
Q 1553 2238 1856 2203 
L 2053 2175 
Q 2913 2066 3209 1816 
Q 3506 1566 3506 1031 
Q 3506 472 3093 190 
Q 2681 -91 1863 -91 
Q 1516 -91 1145 -36 
Q 775 19 384 128 
L 384 978 
Q 719 816 1070 734 
Q 1422 653 1784 653 
Q 2113 653 2278 743 
Q 2444 834 2444 1013 
Q 2444 1163 2330 1236 
Q 2216 1309 1875 1350 
L 1678 1375 
Q 931 1469 631 1722 
Q 331 1975 331 2491 
Q 331 3047 712 3315 
Q 1094 3584 1881 3584 
Q 2191 3584 2531 3537 
Q 2872 3491 3272 3391 
z
" transform="scale(0.015625)"/>
      <path id="DejaVuSans-Bold-70" d="M 1656 506 
L 1656 -1331 
L 538 -1331 
L 538 3500 
L 1656 3500 
L 1656 2988 
Q 1888 3294 2169 3439 
Q 2450 3584 2816 3584 
Q 3463 3584 3878 3070 
Q 4294 2556 4294 1747 
Q 4294 938 3878 423 
Q 3463 -91 2816 -91 
Q 2450 -91 2169 54 
Q 1888 200 1656 506 
z
M 2400 2772 
Q 2041 2772 1848 2508 
Q 1656 2244 1656 1747 
Q 1656 1250 1848 986 
Q 2041 722 2400 722 
Q 2759 722 2948 984 
Q 3138 1247 3138 1747 
Q 3138 2247 2948 2509 
Q 2759 2772 2400 2772 
z
" transform="scale(0.015625)"/>
     </defs>
     <use xlink:href="#DejaVuSans-Bold-32"/>
     <use xlink:href="#DejaVuSans-Bold-2e" x="69.580078"/>
     <use xlink:href="#DejaVuSans-Bold-20" x="107.568359"/>
     <use xlink:href="#DejaVuSans-Bold-43" x="142.382812"/>
     <use xlink:href="#DejaVuSans-Bold-6f" x="215.771484"/>
     <use xlink:href="#DejaVuSans-Bold-75" x="284.472656"/>
     <use xlink:href="#DejaVuSans-Bold-6e" x="355.664062"/>
     <use xlink:href="#DejaVuSans-Bold-74" x="426.855469"/>
     <use xlink:href="#DejaVuSans-Bold-65" x="474.658203"/>
     <use xlink:href="#DejaVuSans-Bold-72" x="542.480469"/>
     <use xlink:href="#DejaVuSans-Bold-66" x="591.796875"/>
     <use xlink:href="#DejaVuSans-Bold-61" x="635.302734"/>
     <use xlink:href="#DejaVuSans-Bold-63" x="702.783203"/>
     <use xlink:href="#DejaVuSans-Bold-74" x="762.060547"/>
     <use xlink:href="#DejaVuSans-Bold-75" x="809.863281"/>
     <use xlink:href="#DejaVuSans-Bold-61" x="881.054688"/>
     <use xlink:href="#DejaVuSans-Bold-6c" x="948.535156"/>
     <use xlink:href="#DejaVuSans-Bold-20" x="982.8125"/>
     <use xlink:href="#DejaVuSans-Bold-69" x="1017.626953"/>
     <use xlink:href="#DejaVuSans-Bold-6e" x="1051.904297"/>
     <use xlink:href="#DejaVuSans-Bold-73" x="1123.095703"/>
     <use xlink:href="#DejaVuSans-Bold-74" x="1182.617188"/>
     <use xlink:href="#DejaVuSans-Bold-72" x="1230.419922"/>
     <use xlink:href="#DejaVuSans-Bold-75" x="1279.736328"/>
     <use xlink:href="#DejaVuSans-Bold-63" x="1350.927734"/>
     <use xlink:href="#DejaVuSans-Bold-74" x="1410.205078"/>
     <use xlink:href="#DejaVuSans-Bold-69" x="1458.007812"/>
     <use xlink:href="#DejaVuSans-Bold-6f" x="1492.285156"/>
     <use xlink:href="#DejaVuSans-Bold-6e" x="1560.986328"/>
     <use xlink:href="#DejaVuSans-Bold-20" x="1632.177734"/>
     <use xlink:href="#DejaVuSans-Bold-70" x="1666.992188"/>
     <use xlink:href="#DejaVuSans-Bold-61" x="1738.574219"/>
     <use xlink:href="#DejaVuSans-Bold-69" x="1806.054688"/>
     <use xlink:href="#DejaVuSans-Bold-72" x="1840.332031"/>
    </g>
   </g>
   <g id="text_4">
    <!-- Keep the same observation and action: $(o_t,a_t)$ -->
    <g transform="translate(317.118305 131.23048)scale(0.1 -0.1)">
     <defs>
      <path id="DejaVuSans-4b" d="M 628 4666 
L 1259 4666 
L 1259 2694 
L 3353 4666 
L 4166 4666 
L 1850 2491 
L 4331 0 
L 3500 0 
L 1259 2247 
L 1259 0 
L 628 0 
L 628 4666 
z
" transform="scale(0.015625)"/>
      <path id="DejaVuSans-62" d="M 3116 1747 
Q 3116 2381 2855 2742 
Q 2594 3103 2138 3103 
Q 1681 3103 1420 2742 
Q 1159 2381 1159 1747 
Q 1159 1113 1420 752 
Q 1681 391 2138 391 
Q 2594 391 2855 752 
Q 3116 1113 3116 1747 
z
M 1159 2969 
Q 1341 3281 1617 3432 
Q 1894 3584 2278 3584 
Q 2916 3584 3314 3078 
Q 3713 2572 3713 1747 
Q 3713 922 3314 415 
Q 2916 -91 2278 -91 
Q 1894 -91 1617 61 
Q 1341 213 1159 525 
L 1159 0 
L 581 0 
L 581 4863 
L 1159 4863 
L 1159 2969 
z
" transform="scale(0.015625)"/>
     </defs>
     <use xlink:href="#DejaVuSans-4b" transform="translate(0 0.015625)"/>
     <use xlink:href="#DejaVuSans-65" transform="translate(65.576172 0.015625)"/>
     <use xlink:href="#DejaVuSans-65" transform="translate(127.099609 0.015625)"/>
     <use xlink:href="#DejaVuSans-70" transform="translate(188.623047 0.015625)"/>
     <use xlink:href="#DejaVuSans-20" transform="translate(252.099609 0.015625)"/>
     <use xlink:href="#DejaVuSans-74" transform="translate(283.886719 0.015625)"/>
     <use xlink:href="#DejaVuSans-68" transform="translate(323.095703 0.015625)"/>
     <use xlink:href="#DejaVuSans-65" transform="translate(386.474609 0.015625)"/>
     <use xlink:href="#DejaVuSans-20" transform="translate(447.998047 0.015625)"/>
     <use xlink:href="#DejaVuSans-73" transform="translate(479.785156 0.015625)"/>
     <use xlink:href="#DejaVuSans-61" transform="translate(531.884766 0.015625)"/>
     <use xlink:href="#DejaVuSans-6d" transform="translate(593.164062 0.015625)"/>
     <use xlink:href="#DejaVuSans-65" transform="translate(690.576172 0.015625)"/>
     <use xlink:href="#DejaVuSans-20" transform="translate(752.099609 0.015625)"/>
     <use xlink:href="#DejaVuSans-6f" transform="translate(783.886719 0.015625)"/>
     <use xlink:href="#DejaVuSans-62" transform="translate(845.068359 0.015625)"/>
     <use xlink:href="#DejaVuSans-73" transform="translate(908.544922 0.015625)"/>
     <use xlink:href="#DejaVuSans-65" transform="translate(960.644531 0.015625)"/>
     <use xlink:href="#DejaVuSans-72" transform="translate(1022.167969 0.015625)"/>
     <use xlink:href="#DejaVuSans-76" transform="translate(1063.28125 0.015625)"/>
     <use xlink:href="#DejaVuSans-61" transform="translate(1122.460938 0.015625)"/>
     <use xlink:href="#DejaVuSans-74" transform="translate(1183.740234 0.015625)"/>
     <use xlink:href="#DejaVuSans-69" transform="translate(1222.949219 0.015625)"/>
     <use xlink:href="#DejaVuSans-6f" transform="translate(1250.732422 0.015625)"/>
     <use xlink:href="#DejaVuSans-6e" transform="translate(1311.914062 0.015625)"/>
     <use xlink:href="#DejaVuSans-20" transform="translate(1375.292969 0.015625)"/>
     <use xlink:href="#DejaVuSans-61" transform="translate(1407.080078 0.015625)"/>
     <use xlink:href="#DejaVuSans-6e" transform="translate(1468.359375 0.015625)"/>
     <use xlink:href="#DejaVuSans-64" transform="translate(1531.738281 0.015625)"/>
     <use xlink:href="#DejaVuSans-20" transform="translate(1595.214844 0.015625)"/>
     <use xlink:href="#DejaVuSans-61" transform="translate(1627.001953 0.015625)"/>
     <use xlink:href="#DejaVuSans-63" transform="translate(1688.28125 0.015625)"/>
     <use xlink:href="#DejaVuSans-74" transform="translate(1743.261719 0.015625)"/>
     <use xlink:href="#DejaVuSans-69" transform="translate(1782.470703 0.015625)"/>
     <use xlink:href="#DejaVuSans-6f" transform="translate(1810.253906 0.015625)"/>
     <use xlink:href="#DejaVuSans-6e" transform="translate(1871.435547 0.015625)"/>
     <use xlink:href="#DejaVuSans-3a" transform="translate(1934.814453 0.015625)"/>
     <use xlink:href="#DejaVuSans-20" transform="translate(1968.505859 0.015625)"/>
     <use xlink:href="#DejaVuSans-28" transform="translate(2000.292969 0.015625)"/>
     <use xlink:href="#DejaVuSans-Oblique-6f" transform="translate(2039.306641 0.015625)"/>
     <use xlink:href="#DejaVuSans-Oblique-74" transform="translate(2100.488281 -16.390625)scale(0.7)"/>
     <use xlink:href="#DejaVuSans-2c" transform="translate(2130.668945 0.015625)"/>
     <use xlink:href="#DejaVuSans-Oblique-61" transform="translate(2181.938477 0.015625)"/>
     <use xlink:href="#DejaVuSans-Oblique-74" transform="translate(2243.217773 -16.390625)scale(0.7)"/>
     <use xlink:href="#DejaVuSans-29" transform="translate(2273.398438 0.015625)"/>
    </g>
    <!--  -->
    <g transform="translate(317.118305 142.828527)scale(0.1 -0.1)"/>
    <!-- Correct instruction $\ell_i$ -->
    <g transform="translate(317.118305 154.406261)scale(0.1 -0.1)">
     <defs>
      <path id="DejaVuSans-43" d="M 4122 4306 
L 4122 3641 
Q 3803 3938 3442 4084 
Q 3081 4231 2675 4231 
Q 1875 4231 1450 3742 
Q 1025 3253 1025 2328 
Q 1025 1406 1450 917 
Q 1875 428 2675 428 
Q 3081 428 3442 575 
Q 3803 722 4122 1019 
L 4122 359 
Q 3791 134 3420 21 
Q 3050 -91 2638 -91 
Q 1578 -91 968 557 
Q 359 1206 359 2328 
Q 359 3453 968 4101 
Q 1578 4750 2638 4750 
Q 3056 4750 3426 4639 
Q 3797 4528 4122 4306 
z
" transform="scale(0.015625)"/>
     </defs>
     <use xlink:href="#DejaVuSans-43" transform="translate(0 0.015625)"/>
     <use xlink:href="#DejaVuSans-6f" transform="translate(69.824219 0.015625)"/>
     <use xlink:href="#DejaVuSans-72" transform="translate(131.005859 0.015625)"/>
     <use xlink:href="#DejaVuSans-72" transform="translate(172.119141 0.015625)"/>
     <use xlink:href="#DejaVuSans-65" transform="translate(213.232422 0.015625)"/>
     <use xlink:href="#DejaVuSans-63" transform="translate(274.755859 0.015625)"/>
     <use xlink:href="#DejaVuSans-74" transform="translate(329.736328 0.015625)"/>
     <use xlink:href="#DejaVuSans-20" transform="translate(368.945312 0.015625)"/>
     <use xlink:href="#DejaVuSans-69" transform="translate(400.732422 0.015625)"/>
     <use xlink:href="#DejaVuSans-6e" transform="translate(428.515625 0.015625)"/>
     <use xlink:href="#DejaVuSans-73" transform="translate(491.894531 0.015625)"/>
     <use xlink:href="#DejaVuSans-74" transform="translate(543.994141 0.015625)"/>
     <use xlink:href="#DejaVuSans-72" transform="translate(583.203125 0.015625)"/>
     <use xlink:href="#DejaVuSans-75" transform="translate(624.316406 0.015625)"/>
     <use xlink:href="#DejaVuSans-63" transform="translate(687.695312 0.015625)"/>
     <use xlink:href="#DejaVuSans-74" transform="translate(742.675781 0.015625)"/>
     <use xlink:href="#DejaVuSans-69" transform="translate(781.884766 0.015625)"/>
     <use xlink:href="#DejaVuSans-6f" transform="translate(809.667969 0.015625)"/>
     <use xlink:href="#DejaVuSans-6e" transform="translate(870.849609 0.015625)"/>
     <use xlink:href="#DejaVuSans-20" transform="translate(934.228516 0.015625)"/>
     <use xlink:href="#DejaVuSans-Oblique-2113" transform="translate(966.015625 0.015625)"/>
     <use xlink:href="#DejaVuSans-Oblique-69" transform="translate(1007.324219 -16.390625)scale(0.7)"/>
    </g>
    <!-- $s^+=\log p_\theta(a_t\mid o_t,\ell_i)$ -->
    <g transform="translate(317.118305 166.860949)scale(0.1 -0.1)">
     <defs>
      <path id="DejaVuSans-Oblique-73" d="M 3200 3397 
L 3091 2853 
Q 2863 2978 2609 3040 
Q 2356 3103 2088 3103 
Q 1634 3103 1373 2948 
Q 1113 2794 1113 2528 
Q 1113 2219 1719 2053 
Q 1766 2041 1788 2034 
L 1972 1978 
Q 2547 1819 2739 1644 
Q 2931 1469 2931 1166 
Q 2931 609 2489 259 
Q 2047 -91 1331 -91 
Q 1053 -91 747 -37 
Q 441 16 72 128 
L 184 722 
Q 500 559 806 475 
Q 1113 391 1394 391 
Q 1816 391 2080 572 
Q 2344 753 2344 1031 
Q 2344 1331 1650 1516 
L 1591 1531 
L 1394 1581 
Q 956 1697 753 1886 
Q 550 2075 550 2369 
Q 550 2928 970 3256 
Q 1391 3584 2113 3584 
Q 2397 3584 2667 3537 
Q 2938 3491 3200 3397 
z
" transform="scale(0.015625)"/>
      <path id="DejaVuSans-2b" d="M 2944 4013 
L 2944 2272 
L 4684 2272 
L 4684 1741 
L 2944 1741 
L 2944 0 
L 2419 0 
L 2419 1741 
L 678 1741 
L 678 2272 
L 2419 2272 
L 2419 4013 
L 2944 4013 
z
" transform="scale(0.015625)"/>
     </defs>
     <use xlink:href="#DejaVuSans-Oblique-73" transform="translate(0 0.826562)"/>
     <use xlink:href="#DejaVuSans-2b" transform="translate(70.387201 39.107812)scale(0.7)"/>
     <use xlink:href="#DejaVuSans-3d" transform="translate(164.894036 0.826562)"/>
     <use xlink:href="#DejaVuSans-6c" transform="translate(268.165521 0.826562)"/>
     <use xlink:href="#DejaVuSans-6f" transform="translate(295.948724 0.826562)"/>
     <use xlink:href="#DejaVuSans-67" transform="translate(357.130365 0.826562)"/>
     <use xlink:href="#DejaVuSans-Oblique-70" transform="translate(436.842603 0.826562)"/>
     <use xlink:href="#DejaVuSans-Oblique-3b8" transform="translate(500.319166 -15.579688)scale(0.7)"/>
     <use xlink:href="#DejaVuSans-28" transform="translate(545.880689 0.826562)"/>
     <use xlink:href="#DejaVuSans-Oblique-61" transform="translate(584.894361 0.826562)"/>
     <use xlink:href="#DejaVuSans-Oblique-74" transform="translate(646.173658 -15.579688)scale(0.7)"/>
     <use xlink:href="#DejaVuSans-2223" transform="translate(695.836744 0.826562)"/>
     <use xlink:href="#DejaVuSans-Oblique-6f" transform="translate(765.319166 0.826562)"/>
     <use xlink:href="#DejaVuSans-Oblique-74" transform="translate(826.500806 -15.579688)scale(0.7)"/>
     <use xlink:href="#DejaVuSans-2c" transform="translate(856.681471 0.826562)"/>
     <use xlink:href="#DejaVuSans-Oblique-2113" transform="translate(907.951002 0.826562)"/>
     <use xlink:href="#DejaVuSans-Oblique-69" transform="translate(949.259596 -15.579688)scale(0.7)"/>
     <use xlink:href="#DejaVuSans-29" transform="translate(971.442213 0.826562)"/>
    </g>
    <!--  -->
    <g transform="translate(317.118305 178.558996)scale(0.1 -0.1)"/>
    <!-- Wrong-target instruction $\ell_i^-$ -->
    <g transform="translate(317.118305 190.138683)scale(0.1 -0.1)">
     <defs>
      <path id="DejaVuSans-57" d="M 213 4666 
L 850 4666 
L 1831 722 
L 2809 4666 
L 3519 4666 
L 4500 722 
L 5478 4666 
L 6119 4666 
L 4947 0 
L 4153 0 
L 3169 4050 
L 2175 0 
L 1381 0 
L 213 4666 
z
" transform="scale(0.015625)"/>
      <path id="DejaVuSans-2d" d="M 313 2009 
L 1997 2009 
L 1997 1497 
L 313 1497 
L 313 2009 
z
" transform="scale(0.015625)"/>
     </defs>
     <use xlink:href="#DejaVuSans-57" transform="translate(0 0.015625)"/>
     <use xlink:href="#DejaVuSans-72" transform="translate(98.876953 0.015625)"/>
     <use xlink:href="#DejaVuSans-6f" transform="translate(139.990234 0.015625)"/>
     <use xlink:href="#DejaVuSans-6e" transform="translate(201.171875 0.015625)"/>
     <use xlink:href="#DejaVuSans-67" transform="translate(264.550781 0.015625)"/>
     <use xlink:href="#DejaVuSans-2d" transform="translate(328.027344 0.015625)"/>
     <use xlink:href="#DejaVuSans-74" transform="translate(364.111328 0.015625)"/>
     <use xlink:href="#DejaVuSans-61" transform="translate(403.320312 0.015625)"/>
     <use xlink:href="#DejaVuSans-72" transform="translate(464.599609 0.015625)"/>
     <use xlink:href="#DejaVuSans-67" transform="translate(505.712891 0.015625)"/>
     <use xlink:href="#DejaVuSans-65" transform="translate(569.189453 0.015625)"/>
     <use xlink:href="#DejaVuSans-74" transform="translate(630.712891 0.015625)"/>
     <use xlink:href="#DejaVuSans-20" transform="translate(669.921875 0.015625)"/>
     <use xlink:href="#DejaVuSans-69" transform="translate(701.708984 0.015625)"/>
     <use xlink:href="#DejaVuSans-6e" transform="translate(729.492188 0.015625)"/>
     <use xlink:href="#DejaVuSans-73" transform="translate(792.871094 0.015625)"/>
     <use xlink:href="#DejaVuSans-74" transform="translate(844.970703 0.015625)"/>
     <use xlink:href="#DejaVuSans-72" transform="translate(884.179688 0.015625)"/>
     <use xlink:href="#DejaVuSans-75" transform="translate(925.292969 0.015625)"/>
     <use xlink:href="#DejaVuSans-63" transform="translate(988.671875 0.015625)"/>
     <use xlink:href="#DejaVuSans-74" transform="translate(1043.652344 0.015625)"/>
     <use xlink:href="#DejaVuSans-69" transform="translate(1082.861328 0.015625)"/>
     <use xlink:href="#DejaVuSans-6f" transform="translate(1110.644531 0.015625)"/>
     <use xlink:href="#DejaVuSans-6e" transform="translate(1171.826172 0.015625)"/>
     <use xlink:href="#DejaVuSans-20" transform="translate(1235.205078 0.015625)"/>
     <use xlink:href="#DejaVuSans-Oblique-2113" transform="translate(1266.992188 0.015625)"/>
     <use xlink:href="#DejaVuSans-2212" transform="translate(1329.138997 38.360938)scale(0.7)"/>
     <use xlink:href="#DejaVuSans-Oblique-69" transform="translate(1308.300781 -27.328125)scale(0.7)"/>
    </g>
    <!-- $s^-=\log p_\theta(a_t\mid o_t,\ell_i^-)$ -->
    <g transform="translate(317.118305 202.688683)scale(0.1 -0.1)">
     <use xlink:href="#DejaVuSans-Oblique-73" transform="translate(0 0.90625)"/>
     <use xlink:href="#DejaVuSans-2212" transform="translate(70.387201 39.1875)scale(0.7)"/>
     <use xlink:href="#DejaVuSans-3d" transform="translate(164.894036 0.90625)"/>
     <use xlink:href="#DejaVuSans-6c" transform="translate(268.165521 0.90625)"/>
     <use xlink:href="#DejaVuSans-6f" transform="translate(295.948724 0.90625)"/>
     <use xlink:href="#DejaVuSans-67" transform="translate(357.130365 0.90625)"/>
     <use xlink:href="#DejaVuSans-Oblique-70" transform="translate(436.842603 0.90625)"/>
     <use xlink:href="#DejaVuSans-Oblique-3b8" transform="translate(500.319166 -15.5)scale(0.7)"/>
     <use xlink:href="#DejaVuSans-28" transform="translate(545.880689 0.90625)"/>
     <use xlink:href="#DejaVuSans-Oblique-61" transform="translate(584.894361 0.90625)"/>
     <use xlink:href="#DejaVuSans-Oblique-74" transform="translate(646.173658 -15.5)scale(0.7)"/>
     <use xlink:href="#DejaVuSans-2223" transform="translate(695.836744 0.90625)"/>
     <use xlink:href="#DejaVuSans-Oblique-6f" transform="translate(765.319166 0.90625)"/>
     <use xlink:href="#DejaVuSans-Oblique-74" transform="translate(826.500806 -15.5)scale(0.7)"/>
     <use xlink:href="#DejaVuSans-2c" transform="translate(856.681471 0.90625)"/>
     <use xlink:href="#DejaVuSans-Oblique-2113" transform="translate(907.951002 0.90625)"/>
     <use xlink:href="#DejaVuSans-2212" transform="translate(970.097812 39.251563)scale(0.7)"/>
     <use xlink:href="#DejaVuSans-Oblique-69" transform="translate(949.259596 -26.4375)scale(0.7)"/>
     <use xlink:href="#DejaVuSans-29" transform="translate(1045.122226 0.90625)"/>
    </g>
    <!--  -->
    <g transform="translate(317.118305 214.98673)scale(0.1 -0.1)"/>
    <!-- Negative changes the task target, -->
    <g transform="translate(317.118305 226.564464)scale(0.1 -0.1)">
     <defs>
      <path id="DejaVuSans-4e" d="M 628 4666 
L 1478 4666 
L 3547 763 
L 3547 4666 
L 4159 4666 
L 4159 0 
L 3309 0 
L 1241 3903 
L 1241 0 
L 628 0 
L 628 4666 
z
" transform="scale(0.015625)"/>
     </defs>
     <use xlink:href="#DejaVuSans-4e"/>
     <use xlink:href="#DejaVuSans-65" x="74.804688"/>
     <use xlink:href="#DejaVuSans-67" x="136.328125"/>
     <use xlink:href="#DejaVuSans-61" x="199.804688"/>
     <use xlink:href="#DejaVuSans-74" x="261.083984"/>
     <use xlink:href="#DejaVuSans-69" x="300.292969"/>
     <use xlink:href="#DejaVuSans-76" x="328.076172"/>
     <use xlink:href="#DejaVuSans-65" x="387.255859"/>
     <use xlink:href="#DejaVuSans-20" x="448.779297"/>
     <use xlink:href="#DejaVuSans-63" x="480.566406"/>
     <use xlink:href="#DejaVuSans-68" x="535.546875"/>
     <use xlink:href="#DejaVuSans-61" x="598.925781"/>
     <use xlink:href="#DejaVuSans-6e" x="660.205078"/>
     <use xlink:href="#DejaVuSans-67" x="723.583984"/>
     <use xlink:href="#DejaVuSans-65" x="787.060547"/>
     <use xlink:href="#DejaVuSans-73" x="848.583984"/>
     <use xlink:href="#DejaVuSans-20" x="900.683594"/>
     <use xlink:href="#DejaVuSans-74" x="932.470703"/>
     <use xlink:href="#DejaVuSans-68" x="971.679688"/>
     <use xlink:href="#DejaVuSans-65" x="1035.058594"/>
     <use xlink:href="#DejaVuSans-20" x="1096.582031"/>
     <use xlink:href="#DejaVuSans-74" x="1128.369141"/>
     <use xlink:href="#DejaVuSans-61" x="1167.578125"/>
     <use xlink:href="#DejaVuSans-73" x="1228.857422"/>
     <use xlink:href="#DejaVuSans-6b" x="1280.957031"/>
     <use xlink:href="#DejaVuSans-20" x="1338.867188"/>
     <use xlink:href="#DejaVuSans-74" x="1370.654297"/>
     <use xlink:href="#DejaVuSans-61" x="1409.863281"/>
     <use xlink:href="#DejaVuSans-72" x="1471.142578"/>
     <use xlink:href="#DejaVuSans-67" x="1510.505859"/>
     <use xlink:href="#DejaVuSans-65" x="1573.982422"/>
     <use xlink:href="#DejaVuSans-74" x="1635.505859"/>
     <use xlink:href="#DejaVuSans-2c" x="1674.714844"/>
    </g>
    <!-- not the image or expert action. -->
    <g transform="translate(317.118305 238.142199)scale(0.1 -0.1)">
     <use xlink:href="#DejaVuSans-6e"/>
     <use xlink:href="#DejaVuSans-6f" x="63.378906"/>
     <use xlink:href="#DejaVuSans-74" x="124.560547"/>
     <use xlink:href="#DejaVuSans-20" x="163.769531"/>
     <use xlink:href="#DejaVuSans-74" x="195.556641"/>
     <use xlink:href="#DejaVuSans-68" x="234.765625"/>
     <use xlink:href="#DejaVuSans-65" x="298.144531"/>
     <use xlink:href="#DejaVuSans-20" x="359.667969"/>
     <use xlink:href="#DejaVuSans-69" x="391.455078"/>
     <use xlink:href="#DejaVuSans-6d" x="419.238281"/>
     <use xlink:href="#DejaVuSans-61" x="516.650391"/>
     <use xlink:href="#DejaVuSans-67" x="577.929688"/>
     <use xlink:href="#DejaVuSans-65" x="641.40625"/>
     <use xlink:href="#DejaVuSans-20" x="702.929688"/>
     <use xlink:href="#DejaVuSans-6f" x="734.716797"/>
     <use xlink:href="#DejaVuSans-72" x="795.898438"/>
     <use xlink:href="#DejaVuSans-20" x="837.011719"/>
     <use xlink:href="#DejaVuSans-65" x="868.798828"/>
     <use xlink:href="#DejaVuSans-78" x="928.572266"/>
     <use xlink:href="#DejaVuSans-70" x="987.751953"/>
     <use xlink:href="#DejaVuSans-65" x="1051.228516"/>
     <use xlink:href="#DejaVuSans-72" x="1112.751953"/>
     <use xlink:href="#DejaVuSans-74" x="1153.865234"/>
     <use xlink:href="#DejaVuSans-20" x="1193.074219"/>
     <use xlink:href="#DejaVuSans-61" x="1224.861328"/>
     <use xlink:href="#DejaVuSans-63" x="1286.140625"/>
     <use xlink:href="#DejaVuSans-74" x="1341.121094"/>
     <use xlink:href="#DejaVuSans-69" x="1380.330078"/>
     <use xlink:href="#DejaVuSans-6f" x="1408.113281"/>
     <use xlink:href="#DejaVuSans-6e" x="1469.294922"/>
     <use xlink:href="#DejaVuSans-2e" x="1532.673828"/>
    </g>
   </g>
   <g id="text_5">
    <!-- 3. Training objective -->
    <g transform="translate(577.006805 107.995628)scale(0.116 -0.116)">
     <defs>
      <path id="DejaVuSans-Bold-33" d="M 2981 2516 
Q 3453 2394 3698 2092 
Q 3944 1791 3944 1325 
Q 3944 631 3412 270 
Q 2881 -91 1863 -91 
Q 1503 -91 1142 -33 
Q 781 25 428 141 
L 428 1069 
Q 766 900 1098 814 
Q 1431 728 1753 728 
Q 2231 728 2486 893 
Q 2741 1059 2741 1369 
Q 2741 1688 2480 1852 
Q 2219 2016 1709 2016 
L 1228 2016 
L 1228 2791 
L 1734 2791 
Q 2188 2791 2409 2933 
Q 2631 3075 2631 3366 
Q 2631 3634 2415 3781 
Q 2200 3928 1806 3928 
Q 1516 3928 1219 3862 
Q 922 3797 628 3669 
L 628 4550 
Q 984 4650 1334 4700 
Q 1684 4750 2022 4750 
Q 2931 4750 3382 4451 
Q 3834 4153 3834 3553 
Q 3834 3144 3618 2883 
Q 3403 2622 2981 2516 
z
" transform="scale(0.015625)"/>
      <path id="DejaVuSans-Bold-54" d="M 31 4666 
L 4331 4666 
L 4331 3756 
L 2784 3756 
L 2784 0 
L 1581 0 
L 1581 3756 
L 31 3756 
L 31 4666 
z
" transform="scale(0.015625)"/>
      <path id="DejaVuSans-Bold-62" d="M 2400 722 
Q 2759 722 2948 984 
Q 3138 1247 3138 1747 
Q 3138 2247 2948 2509 
Q 2759 2772 2400 2772 
Q 2041 2772 1848 2508 
Q 1656 2244 1656 1747 
Q 1656 1250 1848 986 
Q 2041 722 2400 722 
z
M 1656 2988 
Q 1888 3294 2169 3439 
Q 2450 3584 2816 3584 
Q 3463 3584 3878 3070 
Q 4294 2556 4294 1747 
Q 4294 938 3878 423 
Q 3463 -91 2816 -91 
Q 2450 -91 2169 54 
Q 1888 200 1656 506 
L 1656 0 
L 538 0 
L 538 4863 
L 1656 4863 
L 1656 2988 
z
" transform="scale(0.015625)"/>
      <path id="DejaVuSans-Bold-6a" d="M 538 3500 
L 1656 3500 
L 1656 63 
Q 1656 -641 1318 -1011 
Q 981 -1381 341 -1381 
L -213 -1381 
L -213 -647 
L -19 -647 
Q 300 -647 419 -503 
Q 538 -359 538 63 
L 538 3500 
z
M 538 4863 
L 1656 4863 
L 1656 3950 
L 538 3950 
L 538 4863 
z
" transform="scale(0.015625)"/>
     </defs>
     <use xlink:href="#DejaVuSans-Bold-33"/>
     <use xlink:href="#DejaVuSans-Bold-2e" x="69.580078"/>
     <use xlink:href="#DejaVuSans-Bold-20" x="107.568359"/>
     <use xlink:href="#DejaVuSans-Bold-54" x="142.382812"/>
     <use xlink:href="#DejaVuSans-Bold-72" x="199.595703"/>
     <use xlink:href="#DejaVuSans-Bold-61" x="248.912109"/>
     <use xlink:href="#DejaVuSans-Bold-69" x="316.392578"/>
     <use xlink:href="#DejaVuSans-Bold-6e" x="350.669922"/>
     <use xlink:href="#DejaVuSans-Bold-69" x="421.861328"/>
     <use xlink:href="#DejaVuSans-Bold-6e" x="456.138672"/>
     <use xlink:href="#DejaVuSans-Bold-67" x="527.330078"/>
     <use xlink:href="#DejaVuSans-Bold-20" x="598.912109"/>
     <use xlink:href="#DejaVuSans-Bold-6f" x="633.726562"/>
     <use xlink:href="#DejaVuSans-Bold-62" x="702.427734"/>
     <use xlink:href="#DejaVuSans-Bold-6a" x="774.009766"/>
     <use xlink:href="#DejaVuSans-Bold-65" x="808.287109"/>
     <use xlink:href="#DejaVuSans-Bold-63" x="876.109375"/>
     <use xlink:href="#DejaVuSans-Bold-74" x="935.386719"/>
     <use xlink:href="#DejaVuSans-Bold-69" x="983.189453"/>
     <use xlink:href="#DejaVuSans-Bold-76" x="1017.466797"/>
     <use xlink:href="#DejaVuSans-Bold-65" x="1082.652344"/>
    </g>
   </g>
   <g id="text_6">
    <!-- $\mathcal{L}=\mathbb{E}[w_i\mathcal{L}_{BC}]$ -->
    <g transform="translate(577.006805 131.228918)scale(0.1 -0.1)">
     <defs>
      <path id="STIXNonUnicode-Italic-e156" d="M 4250 4179 
L 4192 3942 
L 2150 3942 
L 1709 2266 
L 3514 2266 
L 3443 2029 
L 1645 2029 
L 1165 237 
L 3443 237 
L 3392 0 
L 109 0 
L 1229 4179 
L 4250 4179 
z
M 1914 3942 
L 1414 3942 
L 416 237 
L 928 237 
L 1914 3942 
z
" transform="scale(0.015625)"/>
      <path id="DejaVuSans-5b" d="M 550 4863 
L 1875 4863 
L 1875 4416 
L 1125 4416 
L 1125 -397 
L 1875 -397 
L 1875 -844 
L 550 -844 
L 550 4863 
z
" transform="scale(0.015625)"/>
      <path id="DejaVuSans-Oblique-77" d="M 544 3500 
L 1113 3500 
L 1259 684 
L 2566 3500 
L 3231 3500 
L 3425 684 
L 4666 3500 
L 5241 3500 
L 3641 0 
L 2969 0 
L 2797 2900 
L 1459 0 
L 781 0 
L 544 3500 
z
" transform="scale(0.015625)"/>
      <path id="DejaVuSans-5d" d="M 1947 4863 
L 1947 -844 
L 622 -844 
L 622 -397 
L 1369 -397 
L 1369 4416 
L 622 4416 
L 622 4863 
L 1947 4863 
z
" transform="scale(0.015625)"/>
     </defs>
     <use xlink:href="#STIXNonUnicode-Italic-e238" transform="translate(0 0.015625)"/>
     <use xlink:href="#DejaVuSans-3d" transform="translate(88.78241 0.015625)"/>
     <use xlink:href="#STIXNonUnicode-Italic-e156" transform="translate(192.053894 0.015625)"/>
     <use xlink:href="#DejaVuSans-5b" transform="translate(255.953888 0.015625)"/>
     <use xlink:href="#DejaVuSans-Oblique-77" transform="translate(294.96756 0.015625)"/>
     <use xlink:href="#DejaVuSans-Oblique-69" transform="translate(376.754669 -16.390625)scale(0.7)"/>
     <use xlink:href="#STIXNonUnicode-Italic-e238" transform="translate(398.937286 0.015625)"/>
     <use xlink:href="#DejaVuSans-Oblique-42" transform="translate(469.194305 -16.390625)scale(0.7)"/>
     <use xlink:href="#DejaVuSans-Oblique-43" transform="translate(517.216766 -16.390625)scale(0.7)"/>
     <use xlink:href="#DejaVuSans-5d" transform="translate(568.828094 0.015625)"/>
    </g>
    <!-- $+\lambda[m-(s^+-s^-)]_+$ -->
    <g transform="translate(577.006805 143.208996)scale(0.1 -0.1)">
     <defs>
      <path id="DejaVuSans-Oblique-3bb" d="M 2350 4316 
L 3125 0 
L 2516 0 
L 2038 2588 
L 328 0 
L -281 0 
L 1903 3356 
L 1794 3975 
Q 1725 4369 1391 4369 
L 1091 4369 
L 1184 4863 
L 1550 4856 
Q 2253 4847 2350 4316 
z
" transform="scale(0.015625)"/>
      <path id="DejaVuSans-Oblique-6d" d="M 5747 2113 
L 5338 0 
L 4763 0 
L 5166 2094 
Q 5191 2228 5203 2325 
Q 5216 2422 5216 2491 
Q 5216 2772 5059 2928 
Q 4903 3084 4622 3084 
Q 4203 3084 3875 2770 
Q 3547 2456 3450 1953 
L 3066 0 
L 2491 0 
L 2900 2094 
Q 2925 2209 2937 2307 
Q 2950 2406 2950 2484 
Q 2950 2769 2794 2926 
Q 2638 3084 2363 3084 
Q 1938 3084 1609 2770 
Q 1281 2456 1184 1953 
L 800 0 
L 225 0 
L 909 3500 
L 1484 3500 
L 1375 2956 
Q 1609 3263 1923 3423 
Q 2238 3584 2597 3584 
Q 2978 3584 3223 3384 
Q 3469 3184 3519 2828 
Q 3781 3197 4126 3390 
Q 4472 3584 4856 3584 
Q 5306 3584 5551 3325 
Q 5797 3066 5797 2591 
Q 5797 2488 5784 2364 
Q 5772 2241 5747 2113 
z
" transform="scale(0.015625)"/>
     </defs>
     <use xlink:href="#DejaVuSans-2b" transform="translate(0 0.826562)"/>
     <use xlink:href="#DejaVuSans-Oblique-3bb" transform="translate(83.789062 0.826562)"/>
     <use xlink:href="#DejaVuSans-5b" transform="translate(142.96875 0.826562)"/>
     <use xlink:href="#DejaVuSans-Oblique-6d" transform="translate(181.982422 0.826562)"/>
     <use xlink:href="#DejaVuSans-2212" transform="translate(298.876953 0.826562)"/>
     <use xlink:href="#DejaVuSans-28" transform="translate(402.148438 0.826562)"/>
     <use xlink:href="#DejaVuSans-Oblique-73" transform="translate(441.162109 0.826562)"/>
     <use xlink:href="#DejaVuSans-2b" transform="translate(511.54931 39.107812)scale(0.7)"/>
     <use xlink:href="#DejaVuSans-2212" transform="translate(606.056146 0.826562)"/>
     <use xlink:href="#DejaVuSans-Oblique-73" transform="translate(709.32763 0.826562)"/>
     <use xlink:href="#DejaVuSans-2212" transform="translate(779.714831 39.107812)scale(0.7)"/>
     <use xlink:href="#DejaVuSans-29" transform="translate(854.739245 0.826562)"/>
     <use xlink:href="#DejaVuSans-5d" transform="translate(893.752917 0.826562)"/>
     <use xlink:href="#DejaVuSans-2b" transform="translate(947.361315 -15.579688)scale(0.7)"/>
    </g>
    <!--  -->
    <g transform="translate(577.006805 154.78673)scale(0.1 -0.1)"/>
    <!-- Rare tasks use capped -->
    <g transform="translate(577.006805 166.364464)scale(0.1 -0.1)">
     <defs>
      <path id="DejaVuSans-52" d="M 2841 2188 
Q 3044 2119 3236 1894 
Q 3428 1669 3622 1275 
L 4263 0 
L 3584 0 
L 2988 1197 
Q 2756 1666 2539 1819 
Q 2322 1972 1947 1972 
L 1259 1972 
L 1259 0 
L 628 0 
L 628 4666 
L 2053 4666 
Q 2853 4666 3247 4331 
Q 3641 3997 3641 3322 
Q 3641 2881 3436 2590 
Q 3231 2300 2841 2188 
z
M 1259 4147 
L 1259 2491 
L 2053 2491 
Q 2509 2491 2742 2702 
Q 2975 2913 2975 3322 
Q 2975 3731 2742 3939 
Q 2509 4147 2053 4147 
L 1259 4147 
z
" transform="scale(0.015625)"/>
     </defs>
     <use xlink:href="#DejaVuSans-52"/>
     <use xlink:href="#DejaVuSans-61" x="67.232422"/>
     <use xlink:href="#DejaVuSans-72" x="128.511719"/>
     <use xlink:href="#DejaVuSans-65" x="167.375"/>
     <use xlink:href="#DejaVuSans-20" x="228.898438"/>
     <use xlink:href="#DejaVuSans-74" x="260.685547"/>
     <use xlink:href="#DejaVuSans-61" x="299.894531"/>
     <use xlink:href="#DejaVuSans-73" x="361.173828"/>
     <use xlink:href="#DejaVuSans-6b" x="413.273438"/>
     <use xlink:href="#DejaVuSans-73" x="471.183594"/>
     <use xlink:href="#DejaVuSans-20" x="523.283203"/>
     <use xlink:href="#DejaVuSans-75" x="555.070312"/>
     <use xlink:href="#DejaVuSans-73" x="618.449219"/>
     <use xlink:href="#DejaVuSans-65" x="670.548828"/>
     <use xlink:href="#DejaVuSans-20" x="732.072266"/>
     <use xlink:href="#DejaVuSans-63" x="763.859375"/>
     <use xlink:href="#DejaVuSans-61" x="818.839844"/>
     <use xlink:href="#DejaVuSans-70" x="880.119141"/>
     <use xlink:href="#DejaVuSans-70" x="943.595703"/>
     <use xlink:href="#DejaVuSans-65" x="1007.072266"/>
     <use xlink:href="#DejaVuSans-64" x="1068.595703"/>
    </g>
    <!-- positive weight $w_i$. -->
    <g transform="translate(577.006805 177.944152)scale(0.1 -0.1)">
     <defs>
      <path id="DejaVuSans-77" d="M 269 3500 
L 844 3500 
L 1563 769 
L 2278 3500 
L 2956 3500 
L 3675 769 
L 4391 3500 
L 4966 3500 
L 4050 0 
L 3372 0 
L 2619 2869 
L 1863 0 
L 1184 0 
L 269 3500 
z
" transform="scale(0.015625)"/>
     </defs>
     <use xlink:href="#DejaVuSans-70" transform="translate(0 0.015625)"/>
     <use xlink:href="#DejaVuSans-6f" transform="translate(63.476562 0.015625)"/>
     <use xlink:href="#DejaVuSans-73" transform="translate(124.658203 0.015625)"/>
     <use xlink:href="#DejaVuSans-69" transform="translate(176.757812 0.015625)"/>
     <use xlink:href="#DejaVuSans-74" transform="translate(204.541016 0.015625)"/>
     <use xlink:href="#DejaVuSans-69" transform="translate(243.75 0.015625)"/>
     <use xlink:href="#DejaVuSans-76" transform="translate(271.533203 0.015625)"/>
     <use xlink:href="#DejaVuSans-65" transform="translate(330.712891 0.015625)"/>
     <use xlink:href="#DejaVuSans-20" transform="translate(392.236328 0.015625)"/>
     <use xlink:href="#DejaVuSans-77" transform="translate(424.023438 0.015625)"/>
     <use xlink:href="#DejaVuSans-65" transform="translate(505.810547 0.015625)"/>
     <use xlink:href="#DejaVuSans-69" transform="translate(567.333984 0.015625)"/>
     <use xlink:href="#DejaVuSans-67" transform="translate(595.117188 0.015625)"/>
     <use xlink:href="#DejaVuSans-68" transform="translate(658.59375 0.015625)"/>
     <use xlink:href="#DejaVuSans-74" transform="translate(721.972656 0.015625)"/>
     <use xlink:href="#DejaVuSans-20" transform="translate(761.181641 0.015625)"/>
     <use xlink:href="#DejaVuSans-Oblique-77" transform="translate(792.96875 0.015625)"/>
     <use xlink:href="#DejaVuSans-Oblique-69" transform="translate(874.755859 -16.390625)scale(0.7)"/>
     <use xlink:href="#DejaVuSans-2e" transform="translate(896.938477 0.015625)"/>
    </g>
    <!-- TCAD applies only to eligible pairs. -->
    <g transform="translate(577.006805 189.542199)scale(0.1 -0.1)">
     <defs>
      <path id="DejaVuSans-41" d="M 2188 4044 
L 1331 1722 
L 3047 1722 
L 2188 4044 
z
M 1831 4666 
L 2547 4666 
L 4325 0 
L 3669 0 
L 3244 1197 
L 1141 1197 
L 716 0 
L 50 0 
L 1831 4666 
z
" transform="scale(0.015625)"/>
      <path id="DejaVuSans-44" d="M 1259 4147 
L 1259 519 
L 2022 519 
Q 2988 519 3436 956 
Q 3884 1394 3884 2338 
Q 3884 3275 3436 3711 
Q 2988 4147 2022 4147 
L 1259 4147 
z
M 628 4666 
L 1925 4666 
Q 3281 4666 3915 4102 
Q 4550 3538 4550 2338 
Q 4550 1131 3912 565 
Q 3275 0 1925 0 
L 628 0 
L 628 4666 
z
" transform="scale(0.015625)"/>
      <path id="DejaVuSans-79" d="M 2059 -325 
Q 1816 -950 1584 -1140 
Q 1353 -1331 966 -1331 
L 506 -1331 
L 506 -850 
L 844 -850 
Q 1081 -850 1212 -737 
Q 1344 -625 1503 -206 
L 1606 56 
L 191 3500 
L 800 3500 
L 1894 763 
L 2988 3500 
L 3597 3500 
L 2059 -325 
z
" transform="scale(0.015625)"/>
     </defs>
     <use xlink:href="#DejaVuSans-54"/>
     <use xlink:href="#DejaVuSans-43" x="55.208984"/>
     <use xlink:href="#DejaVuSans-41" x="125.033203"/>
     <use xlink:href="#DejaVuSans-44" x="193.441406"/>
     <use xlink:href="#DejaVuSans-20" x="270.443359"/>
     <use xlink:href="#DejaVuSans-61" x="302.230469"/>
     <use xlink:href="#DejaVuSans-70" x="363.509766"/>
     <use xlink:href="#DejaVuSans-70" x="426.986328"/>
     <use xlink:href="#DejaVuSans-6c" x="490.462891"/>
     <use xlink:href="#DejaVuSans-69" x="518.246094"/>
     <use xlink:href="#DejaVuSans-65" x="546.029297"/>
     <use xlink:href="#DejaVuSans-73" x="607.552734"/>
     <use xlink:href="#DejaVuSans-20" x="659.652344"/>
     <use xlink:href="#DejaVuSans-6f" x="691.439453"/>
     <use xlink:href="#DejaVuSans-6e" x="752.621094"/>
     <use xlink:href="#DejaVuSans-6c" x="816"/>
     <use xlink:href="#DejaVuSans-79" x="843.783203"/>
     <use xlink:href="#DejaVuSans-20" x="902.962891"/>
     <use xlink:href="#DejaVuSans-74" x="934.75"/>
     <use xlink:href="#DejaVuSans-6f" x="973.958984"/>
     <use xlink:href="#DejaVuSans-20" x="1035.140625"/>
     <use xlink:href="#DejaVuSans-65" x="1066.927734"/>
     <use xlink:href="#DejaVuSans-6c" x="1128.451172"/>
     <use xlink:href="#DejaVuSans-69" x="1156.234375"/>
     <use xlink:href="#DejaVuSans-67" x="1184.017578"/>
     <use xlink:href="#DejaVuSans-69" x="1247.494141"/>
     <use xlink:href="#DejaVuSans-62" x="1275.277344"/>
     <use xlink:href="#DejaVuSans-6c" x="1338.753906"/>
     <use xlink:href="#DejaVuSans-65" x="1366.537109"/>
     <use xlink:href="#DejaVuSans-20" x="1428.060547"/>
     <use xlink:href="#DejaVuSans-70" x="1459.847656"/>
     <use xlink:href="#DejaVuSans-61" x="1523.324219"/>
     <use xlink:href="#DejaVuSans-69" x="1584.603516"/>
     <use xlink:href="#DejaVuSans-72" x="1612.386719"/>
     <use xlink:href="#DejaVuSans-73" x="1653.5"/>
     <use xlink:href="#DejaVuSans-2e" x="1705.599609"/>
    </g>
    <!--  -->
    <g transform="translate(577.006805 201.119933)scale(0.1 -0.1)"/>
    <!-- Inference unchanged: -->
    <g transform="translate(577.006805 212.697668)scale(0.1 -0.1)">
     <defs>
      <path id="DejaVuSans-49" d="M 628 4666 
L 1259 4666 
L 1259 0 
L 628 0 
L 628 4666 
z
" transform="scale(0.015625)"/>
      <path id="DejaVuSans-66" d="M 2375 4863 
L 2375 4384 
L 1825 4384 
Q 1516 4384 1395 4259 
Q 1275 4134 1275 3809 
L 1275 3500 
L 2222 3500 
L 2222 3053 
L 1275 3053 
L 1275 0 
L 697 0 
L 697 3053 
L 147 3053 
L 147 3500 
L 697 3500 
L 697 3744 
Q 697 4328 969 4595 
Q 1241 4863 1831 4863 
L 2375 4863 
z
" transform="scale(0.015625)"/>
     </defs>
     <use xlink:href="#DejaVuSans-49"/>
     <use xlink:href="#DejaVuSans-6e" x="29.492188"/>
     <use xlink:href="#DejaVuSans-66" x="92.871094"/>
     <use xlink:href="#DejaVuSans-65" x="128.076172"/>
     <use xlink:href="#DejaVuSans-72" x="189.599609"/>
     <use xlink:href="#DejaVuSans-65" x="228.462891"/>
     <use xlink:href="#DejaVuSans-6e" x="289.986328"/>
     <use xlink:href="#DejaVuSans-63" x="353.365234"/>
     <use xlink:href="#DejaVuSans-65" x="408.345703"/>
     <use xlink:href="#DejaVuSans-20" x="469.869141"/>
     <use xlink:href="#DejaVuSans-75" x="501.65625"/>
     <use xlink:href="#DejaVuSans-6e" x="565.035156"/>
     <use xlink:href="#DejaVuSans-63" x="628.414062"/>
     <use xlink:href="#DejaVuSans-68" x="683.394531"/>
     <use xlink:href="#DejaVuSans-61" x="746.773438"/>
     <use xlink:href="#DejaVuSans-6e" x="808.052734"/>
     <use xlink:href="#DejaVuSans-67" x="871.431641"/>
     <use xlink:href="#DejaVuSans-65" x="934.908203"/>
     <use xlink:href="#DejaVuSans-64" x="996.431641"/>
     <use xlink:href="#DejaVuSans-3a" x="1059.908203"/>
    </g>
    <!-- same VLA policy, no generator, -->
    <g transform="translate(577.006805 224.275402)scale(0.1 -0.1)">
     <defs>
      <path id="DejaVuSans-56" d="M 1831 0 
L 50 4666 
L 709 4666 
L 2188 738 
L 3669 4666 
L 4325 4666 
L 2547 0 
L 1831 0 
z
" transform="scale(0.015625)"/>
     </defs>
     <use xlink:href="#DejaVuSans-73"/>
     <use xlink:href="#DejaVuSans-61" x="52.099609"/>
     <use xlink:href="#DejaVuSans-6d" x="113.378906"/>
     <use xlink:href="#DejaVuSans-65" x="210.791016"/>
     <use xlink:href="#DejaVuSans-20" x="272.314453"/>
     <use xlink:href="#DejaVuSans-56" x="304.101562"/>
     <use xlink:href="#DejaVuSans-4c" x="372.509766"/>
     <use xlink:href="#DejaVuSans-41" x="430.472656"/>
     <use xlink:href="#DejaVuSans-20" x="498.880859"/>
     <use xlink:href="#DejaVuSans-70" x="530.667969"/>
     <use xlink:href="#DejaVuSans-6f" x="594.144531"/>
     <use xlink:href="#DejaVuSans-6c" x="655.326172"/>
     <use xlink:href="#DejaVuSans-69" x="683.109375"/>
     <use xlink:href="#DejaVuSans-63" x="710.892578"/>
     <use xlink:href="#DejaVuSans-79" x="765.873047"/>
     <use xlink:href="#DejaVuSans-2c" x="825.052734"/>
     <use xlink:href="#DejaVuSans-20" x="856.839844"/>
     <use xlink:href="#DejaVuSans-6e" x="888.626953"/>
     <use xlink:href="#DejaVuSans-6f" x="952.005859"/>
     <use xlink:href="#DejaVuSans-20" x="1013.1875"/>
     <use xlink:href="#DejaVuSans-67" x="1044.974609"/>
     <use xlink:href="#DejaVuSans-65" x="1108.451172"/>
     <use xlink:href="#DejaVuSans-6e" x="1169.974609"/>
     <use xlink:href="#DejaVuSans-65" x="1233.353516"/>
     <use xlink:href="#DejaVuSans-72" x="1294.876953"/>
     <use xlink:href="#DejaVuSans-61" x="1335.990234"/>
     <use xlink:href="#DejaVuSans-74" x="1397.269531"/>
     <use xlink:href="#DejaVuSans-6f" x="1436.478516"/>
     <use xlink:href="#DejaVuSans-72" x="1497.660156"/>
     <use xlink:href="#DejaVuSans-2c" x="1538.773438"/>
    </g>
    <!-- detector, or extra module. -->
    <g transform="translate(577.006805 235.853136)scale(0.1 -0.1)">
     <use xlink:href="#DejaVuSans-64"/>
     <use xlink:href="#DejaVuSans-65" x="63.476562"/>
     <use xlink:href="#DejaVuSans-74" x="125"/>
     <use xlink:href="#DejaVuSans-65" x="164.208984"/>
     <use xlink:href="#DejaVuSans-63" x="225.732422"/>
     <use xlink:href="#DejaVuSans-74" x="280.712891"/>
     <use xlink:href="#DejaVuSans-6f" x="319.921875"/>
     <use xlink:href="#DejaVuSans-72" x="381.103516"/>
     <use xlink:href="#DejaVuSans-2c" x="422.216797"/>
     <use xlink:href="#DejaVuSans-20" x="454.003906"/>
     <use xlink:href="#DejaVuSans-6f" x="485.791016"/>
     <use xlink:href="#DejaVuSans-72" x="546.972656"/>
     <use xlink:href="#DejaVuSans-20" x="588.085938"/>
     <use xlink:href="#DejaVuSans-65" x="619.873047"/>
     <use xlink:href="#DejaVuSans-78" x="679.646484"/>
     <use xlink:href="#DejaVuSans-74" x="738.826172"/>
     <use xlink:href="#DejaVuSans-72" x="778.035156"/>
     <use xlink:href="#DejaVuSans-61" x="819.148438"/>
     <use xlink:href="#DejaVuSans-20" x="880.427734"/>
     <use xlink:href="#DejaVuSans-6d" x="912.214844"/>
     <use xlink:href="#DejaVuSans-6f" x="1009.626953"/>
     <use xlink:href="#DejaVuSans-64" x="1070.808594"/>
     <use xlink:href="#DejaVuSans-75" x="1134.285156"/>
     <use xlink:href="#DejaVuSans-6c" x="1197.664062"/>
     <use xlink:href="#DejaVuSans-65" x="1225.447266"/>
     <use xlink:href="#DejaVuSans-2e" x="1286.970703"/>
    </g>
   </g>
   <g id="text_7">
    <!-- Training-only regularization: compare correct and plausible wrong instructions for the same observation/action pair; keep inference cost unchanged. -->
    <g style="fill: #333333" transform="translate(5.76 290.69892)scale(0.105 -0.105)">
     <defs>
      <path id="DejaVuSans-7a" d="M 353 3500 
L 3084 3500 
L 3084 2975 
L 922 459 
L 3084 459 
L 3084 0 
L 275 0 
L 275 525 
L 2438 3041 
L 353 3041 
L 353 3500 
z
" transform="scale(0.015625)"/>
      <path id="DejaVuSans-2f" d="M 1625 4666 
L 2156 4666 
L 531 -594 
L 0 -594 
L 1625 4666 
z
" transform="scale(0.015625)"/>
      <path id="DejaVuSans-3b" d="M 750 3309 
L 1409 3309 
L 1409 2516 
L 750 2516 
L 750 3309 
z
M 750 794 
L 1409 794 
L 1409 256 
L 897 -744 
L 494 -744 
L 750 256 
L 750 794 
z
" transform="scale(0.015625)"/>
     </defs>
     <use xlink:href="#DejaVuSans-54"/>
     <use xlink:href="#DejaVuSans-72" x="46.333984"/>
     <use xlink:href="#DejaVuSans-61" x="87.447266"/>
     <use xlink:href="#DejaVuSans-69" x="148.726562"/>
     <use xlink:href="#DejaVuSans-6e" x="176.509766"/>
     <use xlink:href="#DejaVuSans-69" x="239.888672"/>
     <use xlink:href="#DejaVuSans-6e" x="267.671875"/>
     <use xlink:href="#DejaVuSans-67" x="331.050781"/>
     <use xlink:href="#DejaVuSans-2d" x="394.527344"/>
     <use xlink:href="#DejaVuSans-6f" x="432.486328"/>
     <use xlink:href="#DejaVuSans-6e" x="493.667969"/>
     <use xlink:href="#DejaVuSans-6c" x="557.046875"/>
     <use xlink:href="#DejaVuSans-79" x="584.830078"/>
     <use xlink:href="#DejaVuSans-20" x="644.009766"/>
     <use xlink:href="#DejaVuSans-72" x="675.796875"/>
     <use xlink:href="#DejaVuSans-65" x="714.660156"/>
     <use xlink:href="#DejaVuSans-67" x="776.183594"/>
     <use xlink:href="#DejaVuSans-75" x="839.660156"/>
     <use xlink:href="#DejaVuSans-6c" x="903.039062"/>
     <use xlink:href="#DejaVuSans-61" x="930.822266"/>
     <use xlink:href="#DejaVuSans-72" x="992.101562"/>
     <use xlink:href="#DejaVuSans-69" x="1033.214844"/>
     <use xlink:href="#DejaVuSans-7a" x="1060.998047"/>
     <use xlink:href="#DejaVuSans-61" x="1113.488281"/>
     <use xlink:href="#DejaVuSans-74" x="1174.767578"/>
     <use xlink:href="#DejaVuSans-69" x="1213.976562"/>
     <use xlink:href="#DejaVuSans-6f" x="1241.759766"/>
     <use xlink:href="#DejaVuSans-6e" x="1302.941406"/>
     <use xlink:href="#DejaVuSans-3a" x="1366.320312"/>
     <use xlink:href="#DejaVuSans-20" x="1400.011719"/>
     <use xlink:href="#DejaVuSans-63" x="1431.798828"/>
     <use xlink:href="#DejaVuSans-6f" x="1486.779297"/>
     <use xlink:href="#DejaVuSans-6d" x="1547.960938"/>
     <use xlink:href="#DejaVuSans-70" x="1645.373047"/>
     <use xlink:href="#DejaVuSans-61" x="1708.849609"/>
     <use xlink:href="#DejaVuSans-72" x="1770.128906"/>
     <use xlink:href="#DejaVuSans-65" x="1808.992188"/>
     <use xlink:href="#DejaVuSans-20" x="1870.515625"/>
     <use xlink:href="#DejaVuSans-63" x="1902.302734"/>
     <use xlink:href="#DejaVuSans-6f" x="1957.283203"/>
     <use xlink:href="#DejaVuSans-72" x="2018.464844"/>
     <use xlink:href="#DejaVuSans-72" x="2057.828125"/>
     <use xlink:href="#DejaVuSans-65" x="2096.691406"/>
     <use xlink:href="#DejaVuSans-63" x="2158.214844"/>
     <use xlink:href="#DejaVuSans-74" x="2213.195312"/>
     <use xlink:href="#DejaVuSans-20" x="2252.404297"/>
     <use xlink:href="#DejaVuSans-61" x="2284.191406"/>
     <use xlink:href="#DejaVuSans-6e" x="2345.470703"/>
     <use xlink:href="#DejaVuSans-64" x="2408.849609"/>
     <use xlink:href="#DejaVuSans-20" x="2472.326172"/>
     <use xlink:href="#DejaVuSans-70" x="2504.113281"/>
     <use xlink:href="#DejaVuSans-6c" x="2567.589844"/>
     <use xlink:href="#DejaVuSans-61" x="2595.373047"/>
     <use xlink:href="#DejaVuSans-75" x="2656.652344"/>
     <use xlink:href="#DejaVuSans-73" x="2720.03125"/>
     <use xlink:href="#DejaVuSans-69" x="2772.130859"/>
     <use xlink:href="#DejaVuSans-62" x="2799.914062"/>
     <use xlink:href="#DejaVuSans-6c" x="2863.390625"/>
     <use xlink:href="#DejaVuSans-65" x="2891.173828"/>
     <use xlink:href="#DejaVuSans-20" x="2952.697266"/>
     <use xlink:href="#DejaVuSans-77" x="2984.484375"/>
     <use xlink:href="#DejaVuSans-72" x="3066.271484"/>
     <use xlink:href="#DejaVuSans-6f" x="3105.134766"/>
     <use xlink:href="#DejaVuSans-6e" x="3166.316406"/>
     <use xlink:href="#DejaVuSans-67" x="3229.695312"/>
     <use xlink:href="#DejaVuSans-20" x="3293.171875"/>
     <use xlink:href="#DejaVuSans-69" x="3324.958984"/>
     <use xlink:href="#DejaVuSans-6e" x="3352.742188"/>
     <use xlink:href="#DejaVuSans-73" x="3416.121094"/>
     <use xlink:href="#DejaVuSans-74" x="3468.220703"/>
     <use xlink:href="#DejaVuSans-72" x="3507.429688"/>
     <use xlink:href="#DejaVuSans-75" x="3548.542969"/>
     <use xlink:href="#DejaVuSans-63" x="3611.921875"/>
     <use xlink:href="#DejaVuSans-74" x="3666.902344"/>
     <use xlink:href="#DejaVuSans-69" x="3706.111328"/>
     <use xlink:href="#DejaVuSans-6f" x="3733.894531"/>
     <use xlink:href="#DejaVuSans-6e" x="3795.076172"/>
     <use xlink:href="#DejaVuSans-73" x="3858.455078"/>
     <use xlink:href="#DejaVuSans-20" x="3910.554688"/>
     <use xlink:href="#DejaVuSans-66" x="3942.341797"/>
     <use xlink:href="#DejaVuSans-6f" x="3977.546875"/>
     <use xlink:href="#DejaVuSans-72" x="4038.728516"/>
     <use xlink:href="#DejaVuSans-20" x="4079.841797"/>
     <use xlink:href="#DejaVuSans-74" x="4111.628906"/>
     <use xlink:href="#DejaVuSans-68" x="4150.837891"/>
     <use xlink:href="#DejaVuSans-65" x="4214.216797"/>
     <use xlink:href="#DejaVuSans-20" x="4275.740234"/>
     <use xlink:href="#DejaVuSans-73" x="4307.527344"/>
     <use xlink:href="#DejaVuSans-61" x="4359.626953"/>
     <use xlink:href="#DejaVuSans-6d" x="4420.90625"/>
     <use xlink:href="#DejaVuSans-65" x="4518.318359"/>
     <use xlink:href="#DejaVuSans-20" x="4579.841797"/>
     <use xlink:href="#DejaVuSans-6f" x="4611.628906"/>
     <use xlink:href="#DejaVuSans-62" x="4672.810547"/>
     <use xlink:href="#DejaVuSans-73" x="4736.287109"/>
     <use xlink:href="#DejaVuSans-65" x="4788.386719"/>
     <use xlink:href="#DejaVuSans-72" x="4849.910156"/>
     <use xlink:href="#DejaVuSans-76" x="4891.023438"/>
     <use xlink:href="#DejaVuSans-61" x="4950.203125"/>
     <use xlink:href="#DejaVuSans-74" x="5011.482422"/>
     <use xlink:href="#DejaVuSans-69" x="5050.691406"/>
     <use xlink:href="#DejaVuSans-6f" x="5078.474609"/>
     <use xlink:href="#DejaVuSans-6e" x="5139.65625"/>
     <use xlink:href="#DejaVuSans-2f" x="5203.035156"/>
     <use xlink:href="#DejaVuSans-61" x="5236.726562"/>
     <use xlink:href="#DejaVuSans-63" x="5298.005859"/>
     <use xlink:href="#DejaVuSans-74" x="5352.986328"/>
     <use xlink:href="#DejaVuSans-69" x="5392.195312"/>
     <use xlink:href="#DejaVuSans-6f" x="5419.978516"/>
     <use xlink:href="#DejaVuSans-6e" x="5481.160156"/>
     <use xlink:href="#DejaVuSans-20" x="5544.539062"/>
     <use xlink:href="#DejaVuSans-70" x="5576.326172"/>
     <use xlink:href="#DejaVuSans-61" x="5639.802734"/>
     <use xlink:href="#DejaVuSans-69" x="5701.082031"/>
     <use xlink:href="#DejaVuSans-72" x="5728.865234"/>
     <use xlink:href="#DejaVuSans-3b" x="5769.978516"/>
     <use xlink:href="#DejaVuSans-20" x="5803.669922"/>
     <use xlink:href="#DejaVuSans-6b" x="5835.457031"/>
     <use xlink:href="#DejaVuSans-65" x="5889.742188"/>
     <use xlink:href="#DejaVuSans-65" x="5951.265625"/>
     <use xlink:href="#DejaVuSans-70" x="6012.789062"/>
     <use xlink:href="#DejaVuSans-20" x="6076.265625"/>
     <use xlink:href="#DejaVuSans-69" x="6108.052734"/>
     <use xlink:href="#DejaVuSans-6e" x="6135.835938"/>
     <use xlink:href="#DejaVuSans-66" x="6199.214844"/>
     <use xlink:href="#DejaVuSans-65" x="6234.419922"/>
     <use xlink:href="#DejaVuSans-72" x="6295.943359"/>
     <use xlink:href="#DejaVuSans-65" x="6334.806641"/>
     <use xlink:href="#DejaVuSans-6e" x="6396.330078"/>
     <use xlink:href="#DejaVuSans-63" x="6459.708984"/>
     <use xlink:href="#DejaVuSans-65" x="6514.689453"/>
     <use xlink:href="#DejaVuSans-20" x="6576.212891"/>
     <use xlink:href="#DejaVuSans-63" x="6608"/>
     <use xlink:href="#DejaVuSans-6f" x="6662.980469"/>
     <use xlink:href="#DejaVuSans-73" x="6724.162109"/>
     <use xlink:href="#DejaVuSans-74" x="6776.261719"/>
     <use xlink:href="#DejaVuSans-20" x="6815.470703"/>
     <use xlink:href="#DejaVuSans-75" x="6847.257812"/>
     <use xlink:href="#DejaVuSans-6e" x="6910.636719"/>
     <use xlink:href="#DejaVuSans-63" x="6974.015625"/>
     <use xlink:href="#DejaVuSans-68" x="7028.996094"/>
     <use xlink:href="#DejaVuSans-61" x="7092.375"/>
     <use xlink:href="#DejaVuSans-6e" x="7153.654297"/>
     <use xlink:href="#DejaVuSans-67" x="7217.033203"/>
     <use xlink:href="#DejaVuSans-65" x="7280.509766"/>
     <use xlink:href="#DejaVuSans-64" x="7342.033203"/>
     <use xlink:href="#DejaVuSans-2e" x="7405.509766"/>
    </g>
   </g>
  </g>
  <g id="text_8">
   <!-- RBTAD: rare-balanced task-conditioned action discrimination -->
   <g transform="translate(142.930117 16.397813)scale(0.14 -0.14)">
    <defs>
     <path id="DejaVuSans-Bold-52" d="M 2297 2597 
Q 2675 2597 2839 2737 
Q 3003 2878 3003 3200 
Q 3003 3519 2839 3656 
Q 2675 3794 2297 3794 
L 1791 3794 
L 1791 2597 
L 2297 2597 
z
M 1791 1766 
L 1791 0 
L 588 0 
L 588 4666 
L 2425 4666 
Q 3347 4666 3776 4356 
Q 4206 4047 4206 3378 
Q 4206 2916 3982 2619 
Q 3759 2322 3309 2181 
Q 3556 2125 3751 1926 
Q 3947 1728 4147 1325 
L 4800 0 
L 3519 0 
L 2950 1159 
Q 2778 1509 2601 1637 
Q 2425 1766 2131 1766 
L 1791 1766 
z
" transform="scale(0.015625)"/>
     <path id="DejaVuSans-Bold-41" d="M 3419 850 
L 1538 850 
L 1241 0 
L 31 0 
L 1759 4666 
L 3194 4666 
L 4922 0 
L 3713 0 
L 3419 850 
z
M 1838 1716 
L 3116 1716 
L 2478 3572 
L 1838 1716 
z
" transform="scale(0.015625)"/>
     <path id="DejaVuSans-Bold-44" d="M 1791 3756 
L 1791 909 
L 2222 909 
Q 2959 909 3348 1275 
Q 3738 1641 3738 2338 
Q 3738 3031 3350 3393 
Q 2963 3756 2222 3756 
L 1791 3756 
z
M 588 4666 
L 1856 4666 
Q 2919 4666 3439 4514 
Q 3959 4363 4331 4000 
Q 4659 3684 4818 3271 
Q 4978 2859 4978 2338 
Q 4978 1809 4818 1395 
Q 4659 981 4331 666 
Q 3956 303 3431 151 
Q 2906 0 1856 0 
L 588 0 
L 588 4666 
z
" transform="scale(0.015625)"/>
     <path id="DejaVuSans-Bold-3a" d="M 716 3500 
L 1844 3500 
L 1844 2291 
L 716 2291 
L 716 3500 
z
M 716 1209 
L 1844 1209 
L 1844 0 
L 716 0 
L 716 1209 
z
" transform="scale(0.015625)"/>
     <path id="DejaVuSans-Bold-2d" d="M 347 2297 
L 2309 2297 
L 2309 1388 
L 347 1388 
L 347 2297 
z
" transform="scale(0.015625)"/>
     <path id="DejaVuSans-Bold-64" d="M 2919 2988 
L 2919 4863 
L 4044 4863 
L 4044 0 
L 2919 0 
L 2919 506 
Q 2688 197 2409 53 
Q 2131 -91 1766 -91 
Q 1119 -91 703 423 
Q 288 938 288 1747 
Q 288 2556 703 3070 
Q 1119 3584 1766 3584 
Q 2128 3584 2408 3439 
Q 2688 3294 2919 2988 
z
M 2181 722 
Q 2541 722 2730 984 
Q 2919 1247 2919 1747 
Q 2919 2247 2730 2509 
Q 2541 2772 2181 2772 
Q 1825 2772 1636 2509 
Q 1447 2247 1447 1747 
Q 1447 1247 1636 984 
Q 1825 722 2181 722 
z
" transform="scale(0.015625)"/>
     <path id="DejaVuSans-Bold-6b" d="M 538 4863 
L 1656 4863 
L 1656 2216 
L 2944 3500 
L 4244 3500 
L 2534 1894 
L 4378 0 
L 3022 0 
L 1656 1459 
L 1656 0 
L 538 0 
L 538 4863 
z
" transform="scale(0.015625)"/>
     <path id="DejaVuSans-Bold-6d" d="M 3781 2919 
Q 3994 3244 4286 3414 
Q 4578 3584 4928 3584 
Q 5531 3584 5847 3212 
Q 6163 2841 6163 2131 
L 6163 0 
L 5038 0 
L 5038 1825 
Q 5041 1866 5042 1909 
Q 5044 1953 5044 2034 
Q 5044 2406 4934 2573 
Q 4825 2741 4581 2741 
Q 4263 2741 4089 2478 
Q 3916 2216 3909 1719 
L 3909 0 
L 2784 0 
L 2784 1825 
Q 2784 2406 2684 2573 
Q 2584 2741 2328 2741 
Q 2006 2741 1831 2477 
Q 1656 2213 1656 1722 
L 1656 0 
L 531 0 
L 531 3500 
L 1656 3500 
L 1656 2988 
Q 1863 3284 2130 3434 
Q 2397 3584 2719 3584 
Q 3081 3584 3359 3409 
Q 3638 3234 3781 2919 
z
" transform="scale(0.015625)"/>
    </defs>
    <use xlink:href="#DejaVuSans-Bold-52"/>
    <use xlink:href="#DejaVuSans-Bold-42" x="77.001953"/>
    <use xlink:href="#DejaVuSans-Bold-54" x="153.222656"/>
    <use xlink:href="#DejaVuSans-Bold-41" x="213.685547"/>
    <use xlink:href="#DejaVuSans-Bold-44" x="291.078125"/>
    <use xlink:href="#DejaVuSans-Bold-3a" x="374.085938"/>
    <use xlink:href="#DejaVuSans-Bold-20" x="414.076172"/>
    <use xlink:href="#DejaVuSans-Bold-72" x="448.890625"/>
    <use xlink:href="#DejaVuSans-Bold-61" x="498.207031"/>
    <use xlink:href="#DejaVuSans-Bold-72" x="565.6875"/>
    <use xlink:href="#DejaVuSans-Bold-65" x="615.003906"/>
    <use xlink:href="#DejaVuSans-Bold-2d" x="682.826172"/>
    <use xlink:href="#DejaVuSans-Bold-62" x="724.330078"/>
    <use xlink:href="#DejaVuSans-Bold-61" x="795.912109"/>
    <use xlink:href="#DejaVuSans-Bold-6c" x="863.392578"/>
    <use xlink:href="#DejaVuSans-Bold-61" x="897.669922"/>
    <use xlink:href="#DejaVuSans-Bold-6e" x="965.150391"/>
    <use xlink:href="#DejaVuSans-Bold-63" x="1036.341797"/>
    <use xlink:href="#DejaVuSans-Bold-65" x="1095.619141"/>
    <use xlink:href="#DejaVuSans-Bold-64" x="1163.441406"/>
    <use xlink:href="#DejaVuSans-Bold-20" x="1235.023438"/>
    <use xlink:href="#DejaVuSans-Bold-74" x="1269.837891"/>
    <use xlink:href="#DejaVuSans-Bold-61" x="1317.640625"/>
    <use xlink:href="#DejaVuSans-Bold-73" x="1385.121094"/>
    <use xlink:href="#DejaVuSans-Bold-6b" x="1444.642578"/>
    <use xlink:href="#DejaVuSans-Bold-2d" x="1511.146484"/>
    <use xlink:href="#DejaVuSans-Bold-63" x="1552.650391"/>
    <use xlink:href="#DejaVuSans-Bold-6f" x="1611.927734"/>
    <use xlink:href="#DejaVuSans-Bold-6e" x="1680.628906"/>
    <use xlink:href="#DejaVuSans-Bold-64" x="1751.820312"/>
    <use xlink:href="#DejaVuSans-Bold-69" x="1823.402344"/>
    <use xlink:href="#DejaVuSans-Bold-74" x="1857.679688"/>
    <use xlink:href="#DejaVuSans-Bold-69" x="1905.482422"/>
    <use xlink:href="#DejaVuSans-Bold-6f" x="1939.759766"/>
    <use xlink:href="#DejaVuSans-Bold-6e" x="2008.460938"/>
    <use xlink:href="#DejaVuSans-Bold-65" x="2079.652344"/>
    <use xlink:href="#DejaVuSans-Bold-64" x="2147.474609"/>
    <use xlink:href="#DejaVuSans-Bold-20" x="2219.056641"/>
    <use xlink:href="#DejaVuSans-Bold-61" x="2253.871094"/>
    <use xlink:href="#DejaVuSans-Bold-63" x="2321.351562"/>
    <use xlink:href="#DejaVuSans-Bold-74" x="2380.628906"/>
    <use xlink:href="#DejaVuSans-Bold-69" x="2428.431641"/>
    <use xlink:href="#DejaVuSans-Bold-6f" x="2462.708984"/>
    <use xlink:href="#DejaVuSans-Bold-6e" x="2531.410156"/>
    <use xlink:href="#DejaVuSans-Bold-20" x="2602.601562"/>
    <use xlink:href="#DejaVuSans-Bold-64" x="2637.416016"/>
    <use xlink:href="#DejaVuSans-Bold-69" x="2708.998047"/>
    <use xlink:href="#DejaVuSans-Bold-73" x="2743.275391"/>
    <use xlink:href="#DejaVuSans-Bold-63" x="2802.796875"/>
    <use xlink:href="#DejaVuSans-Bold-72" x="2862.074219"/>
    <use xlink:href="#DejaVuSans-Bold-69" x="2911.390625"/>
    <use xlink:href="#DejaVuSans-Bold-6d" x="2945.667969"/>
    <use xlink:href="#DejaVuSans-Bold-69" x="3049.867188"/>
    <use xlink:href="#DejaVuSans-Bold-6e" x="3084.144531"/>
    <use xlink:href="#DejaVuSans-Bold-61" x="3155.335938"/>
    <use xlink:href="#DejaVuSans-Bold-74" x="3222.816406"/>
    <use xlink:href="#DejaVuSans-Bold-69" x="3270.619141"/>
    <use xlink:href="#DejaVuSans-Bold-6f" x="3304.896484"/>
    <use xlink:href="#DejaVuSans-Bold-6e" x="3373.597656"/>
   </g>
  </g>
 </g>
 <defs>
  <clipPath id="p46642fdee0">
   <rect x="19.564805" y="33.984" width="753.3" height="271.656"/>
  </clipPath>
 </defs>
</svg>
